<?xml version="1.0" standalone="yes"?>
<svg xmlns="http://www.w3.org/2000/svg" width="720" height="720">
<path style="fill:#ccc9c8; stroke:none;" d="M0 0L0 720L67 720L66 707L68 710L70 699L72 676L67 678L70 674L69 670L68 670L67 673L66 673L70 669L74 653L77 654C77.7826 648.673 80.9452 643.88 83.0995 639C88.5941 626.553 94.9472 606.565 106 598L106 593L109 595C115.322 580.871 136.807 578.334 141.268 564.089C142.921 558.809 141.107 553.103 142.703 548C145.498 539.064 151.806 530.617 152.544 521C153.348 510.515 150.25 501.301 150.015 491C149.581 472.078 151.605 450.851 154.285 432C160.846 385.853 180.021 346.47 199.737 305C203.183 297.752 203.848 289.452 206.864 282C210.232 273.678 215.759 266.983 219.599 259C224.067 249.712 230.202 240.479 234.07 231C241.154 213.639 246.537 195.838 260.015 182C275.321 166.284 291.373 163.807 310 154.875C318.258 150.915 324.26 143.56 333 140.232C363.351 128.677 398.131 132.257 429 138.486C448.361 142.393 467.244 143.49 481.536 159.17C486.745 164.884 493.114 173.048 493.895 181C495.012 192.372 489.437 206.357 494.916 217C499.928 226.736 509.835 232.793 514.073 243C523.336 265.31 528.492 290.537 533.887 314C545.661 365.203 553.616 417.163 561.985 469C563.742 479.881 563.447 491.176 565.329 502C569.101 523.703 583.857 543.124 588.334 565C590.43 575.242 587.18 584.873 587.179 595C587.178 609.383 589.634 622.806 594 636L595 636L597 634L598 635L596 637L596 638L600 641C590.538 647.315 603.826 662.401 605.15 669C605.995 673.214 605.197 684.511 602.552 687.895C600.342 690.722 595.22 691.835 594.019 695.275C591.094 703.642 596.137 712.001 597 720L720 720L720 0L0 0z"/>
<path style="fill:#a79f94; stroke:none;" d="M371 133L371 134L401 134L371 133M351 135L351 136L369 135L351 135z"/>
<path style="fill:#9a8062; stroke:none;" d="M369 134L369 135L377 135L369 134z"/>
<path style="fill:#706851; stroke:none;" d="M377 134L377 135L428 140C413.309 132.938 392.939 134 377 134z"/>
<path style="fill:#9a8062; stroke:none;" d="M394 134L394 135L403 135L394 134z"/>
<path style="fill:#a79f94; stroke:none;" d="M403 134L404 135L403 134z"/>
<path style="fill:#9a8062; stroke:none;" d="M404.667 134.333L405.333 134.667L404.667 134.333z"/>
<path style="fill:#a79f94; stroke:none;" d="M406 134L406 135L429 139L406 134z"/>
<path style="fill:#9a8062; stroke:none;" d="M358 135L358 136L363 136L358 135z"/>
<path style="fill:#706851; stroke:none;" d="M207 286L208 286C215.504 267.982 227.924 251.47 236.869 234C248.215 211.841 252.939 188.509 274 172.525C281.22 167.046 289.858 164.609 298 161L302 167L307 160C316.003 159.18 321.126 149.384 329 145.174C341.449 138.519 357.069 136.288 371 136C366.821 134.25 362.394 135.675 358 135.975C337.983 137.344 326.553 146.882 310 156.272C296.707 163.812 281.518 163.882 269 174.326C250.026 190.155 246.075 212.098 235.623 233C226.958 250.332 212.367 267.369 207 286z"/>
<path style="fill:#372f0d; stroke:none;" d="M307 160L302 167L298 161C253.587 175.452 242.51 219.833 223.691 258C219.225 267.059 212.343 274.619 208.337 284C205.338 291.023 205.674 299.213 202.292 306C185.591 339.52 169.377 370.743 161.807 408C158.809 422.756 155.053 438.987 154.21 454C153.907 459.389 156.258 464.598 155.812 470C155.256 476.732 152.611 483.169 152.455 490C152.199 501.228 156.657 511.504 155.312 523C154.43 530.544 149.992 537.701 148 545L154 545L154 546C143.068 548.734 145.663 554.125 156 552L154 558C157.403 557.271 156.987 555.194 157 552L170 563C163.269 562.118 161.106 566.538 156 570L156 571L162 572C156.373 591.83 158.529 603.42 172.799 618.28C177.525 623.201 192.876 625.968 193 632L188 631L188 632L191 632L192 641C185.953 642.216 178.663 637.486 178 646L196 653C195.443 657.717 194.329 671.341 202 668C202.029 676.119 202.329 691.379 210 695L209 690L207 691C206.502 677.398 220.536 689.406 226.848 684.987C231.8 681.521 228.34 675.279 222.985 675.649C218.477 675.96 215.387 676.508 211 675L213 668C218.228 668.704 224.04 671.446 228.811 667.968C234.926 663.51 238.269 649.883 246.005 648.361C256.824 646.232 275.499 659.584 286 663L285 665L286 666C294.367 664.064 312.537 654.617 301 645L301 644L307 634L303 636L302 636L300 631L304 632L304 626L313 634L314 634L311 621L320 622L321 618C323.787 619.206 340.694 622.823 333 616L334 620L321 612L326 611C322.25 605.33 323.429 604.158 325 598L329 602C334.61 601.755 339.691 601.135 341 595L340 595C336.253 601.342 330.967 596.426 328 592C332.857 590.676 336.356 590.1 340 594L341 594C338.469 588.977 333.269 587.893 328 587C328.358 582.354 331.359 580.912 332.968 576.896C336.512 568.053 341.597 547.102 340 538L342 540L343 540L344 534L344 533L339 529L363 524C359.812 518.072 346.497 511.671 340 510L342 508L342 507L338 507C337.348 503.089 335.864 502.3 332 502C331.197 498.175 326.103 495.502 323.028 493.111C318.06 489.249 313.444 483.384 309.306 478.611C301.25 469.32 296.694 455.445 292.667 444C283.983 419.319 280.665 383.907 285.222 358C289.798 331.989 301.87 306.111 312.083 282C317.008 270.375 323.03 260.034 329.083 249C333.797 240.408 336.1 232.316 345.083 226.611C355.822 219.793 368.571 222.185 380 218.667C387.525 216.35 393.406 211.519 401.917 210.972C406.03 210.708 424.839 210.688 422 212L422 213L434 213L435 217L436 217C438.43 208.987 448.185 212.803 454 215L452 218L454 216L455 216L458 219L459 220L465 226L464 229L466.68 238.285L477.745 264L485.037 281L488.015 333L492.441 371L489 391L490 391L492 379C503.94 390.363 494.213 409.383 492.015 423C491.104 428.637 491.96 437.257 487.57 441.566C483.91 445.159 479.226 443.117 475 442C469.292 461.967 454.256 475.436 444.648 493C435.184 510.301 433.964 529.45 429.077 548C426.164 559.057 417.803 572.541 422 584L426 583C428.109 589.679 431.822 596.009 433.105 603C434.002 607.889 431.377 612.666 436 616L435 621C444.422 623.761 440.977 631.934 443.883 639C445.853 643.788 451.048 648.226 452.217 653.039C453.396 657.893 450.334 663.765 451.148 669C452.03 674.671 457.09 676.238 460.143 680.375C461.937 682.806 461.689 686.232 463.738 688.485C467.301 692.403 472.362 689.2 476 687.229C486.271 681.664 489 676.389 489 665C493.723 665.932 498.22 671.631 503 671.007C509.391 670.173 513.449 662.932 520.941 664.407C524.601 665.128 524.573 669.007 527.313 670.825C532.582 674.319 544.218 672.435 549 669L550 669C558.237 681.453 581.456 701.336 593 682L587 685L595 677L594 681C597.965 678.824 607.395 666.437 598.81 663.931C595.251 662.892 590.757 665.956 587 666C583.657 669.185 579.586 670.53 575 670L578.646 655L588.764 638L584.323 623L584.129 591L584.402 562L562.725 503L560.714 479L552.536 425L545.299 401.09L543.443 381L536 363C542.733 361.481 538.842 352.765 538.13 348C536.698 338.41 534.068 327.568 531.762 318.17C530.418 312.695 527.496 309.951 529 304L526 303L525 290L523 290C524.563 283.354 521.195 280.2 520.09 274C516.598 254.398 512.021 231.418 491 224L493 219L490 221C488.991 213.062 486.37 208.461 490 201L487 201L487 200L490 198C490.719 182.714 489.519 157.849 470 152.577C464.096 150.983 457.421 154.794 451 154C452.853 147.897 458.609 149 464 149C452.227 142.739 436.054 141.724 423 139.704C394.749 135.331 367.017 132.314 339 140.862C331.985 143.002 325.711 145.98 320.019 150.666C315.313 154.54 313.412 158.978 307 160z"/>
<path style="fill:#9a8062; stroke:none;" d="M410.667 135.333L411.333 135.667L410.667 135.333z"/>
<path style="fill:#a79f94; stroke:none;" d="M343 137L343 138L350 137L343 137z"/>
<path style="fill:#9a8062; stroke:none;" d="M350 136L350 137L353 137L350 136M414.667 136.333L415.333 136.667L414.667 136.333M346.667 137.333L347.333 137.667L346.667 137.333M418 137L418 138L421 138L418 137z"/>
<path style="fill:#a79f94; stroke:none;" d="M295 159L295 160L342 139C330.819 135 318.643 149.541 310 154.352C305.558 156.825 299.843 157.452 295 159z"/>
<path style="fill:#9a8062; stroke:none;" d="M342.667 138.333L343.333 138.667L342.667 138.333M423 138L423 139L426 139L423 138M338.667 139.333L339.333 139.667L338.667 139.333M428 139L428 140L433 140L428 139z"/>
<path style="fill:#a79f94; stroke:none;" d="M433 139L433 140L442 141L433 139z"/>
<path style="fill:#9a8062; stroke:none;" d="M335.667 140.333L336.333 140.667L335.667 140.333z"/>
<path style="fill:#706851; stroke:none;" d="M429 140L429 141L445 143L429 140z"/>
<path style="fill:#9a8062; stroke:none;" d="M436 140L436 141L439 141L436 140M332 141L333 142L332 141M441.667 141.333L442.333 141.667L441.667 141.333z"/>
<path style="fill:#a79f94; stroke:none;" d="M443 141L443 142L455 144L443 141z"/>
<path style="fill:#9a8062; stroke:none;" d="M330 142L331 143L330 142M445 142L445 143L448 143L445 142M328 143L329 144L328 143z"/>
<path style="fill:#706851; stroke:none;" d="M426.667 143.333L427.333 143.667L426.667 143.333M446 143L446 144L464 148L464 149C458.674 149 452.092 147.457 451 154C457.341 155.173 463.283 151.386 469 152.627C486.118 156.34 486.96 177.981 492 190C500.985 165.611 465.492 144.592 446 143z"/>
<path style="fill:#9a8062; stroke:none;" d="M450.667 143.333L451.333 143.667L450.667 143.333M326 144L327 145L326 144M454 144L454 145L457 145L454 144z"/>
<path style="fill:#a79f94; stroke:none;" d="M457 144L457 145L465 147L465 146L457 144z"/>
<path style="fill:#9a8062; stroke:none;" d="M324 145L325 146L324 145M458.667 145.333L459.333 145.667L458.667 145.333M323 146L324 147L323 146M462 146L463 147L462 146M464 147L464 148L467 149L464 147z"/>
<path style="fill:#a79f94; stroke:none;" d="M466 147L467 148L466 147M467 148L467 149L473 152L467 148z"/>
<path style="fill:#9a8062; stroke:none;" d="M319 149L320 150L319 149M468 149L469 150L468 149M318 150L319 151L318 150M470 150L471 151L470 150M471 151L472 152L471 151M315 152L316 153L315 152z"/>
<path style="fill:#a79f94; stroke:none;" d="M473 152L473 153L479 157L473 152z"/>
<path style="fill:#9a8062; stroke:none;" d="M314 153L315 154L314 153z"/>
<path style="fill:#706851; stroke:none;" d="M442 154L442 155L447 156L442 154z"/>
<path style="fill:#9a8062; stroke:none;" d="M474 153L475 154L474 153M312 154L313 155L312 154M475 154L476 155L475 154M311 155L312 156L311 155M476 155L477 156L476 155M310 156L311 157L310 156z"/>
<path style="fill:#706851; stroke:none;" d="M452 156L453 157L452 156z"/>
<path style="fill:#9a8062; stroke:none;" d="M477 156L478 157L477 156M307 157L308 158L307 157z"/>
<path style="fill:#a79f94; stroke:none;" d="M479 157L484 164L485 164L479 157z"/>
<path style="fill:#9a8062; stroke:none;" d="M302 158L302 159L306 159L302 158M298 159L298 160L302 160L298 159z"/>
<path style="fill:#a79f94; stroke:none;" d="M205 288L206 288C211.446 269.09 225.541 251.416 234.674 234C238.79 226.149 240.664 217.093 244.312 209C254.414 186.591 270.369 169.047 294 161C283.576 158.142 266.494 174.35 260.015 181C245.269 196.135 242.276 215.291 232.649 233C223.665 249.525 207.814 269.226 205 288z"/>
<path style="fill:#9a8062; stroke:none;" d="M294.667 160.333L295.333 160.667L294.667 160.333M481 160L482 161L481 160M292 161L293 162L292 161M482 161L483 162L482 161M289.667 162.333L290.333 162.667L289.667 162.333M483 162L484 163L483 162M287 163L288 164L287 163M285 164L286 165L285 164z"/>
<path style="fill:#a79f94; stroke:none;" d="M485 164L493 183L494 183C493.828 175.705 490.655 168.686 485 164z"/>
<path style="fill:#9a8062; stroke:none;" d="M283 165L284 166L283 165M485 165L486 166L485 165M281 166L282 167L281 166M486 166L487 167L486 166M279 167L280 168L279 167M277 168L278 169L277 168M487 168L488 169L487 168M275 169L276 170L275 169M274 170L275 171L274 170z"/>
<path style="fill:#706851; stroke:none;" d="M408 177L408 179C412.058 179.834 414.671 179.102 416 175L427 173C420.504 168.387 414.001 173.299 408 177z"/>
<path style="fill:#9a8062; stroke:none;" d="M272 171L273 172L272 171z"/>
<path style="fill:#706851; stroke:none;" d="M430 171L428 172L428 173L430 171z"/>
<path style="fill:#9a8062; stroke:none;" d="M489 171L490 172L489 171M271 172L272 173L271 172M269 173L270 174L269 173M490.333 173.667L490.667 174.333L490.333 173.667M268 174L269 175L268 174M267 175L268 176L267 175M491 175L492 176L491 175M266 176L267 177L266 176M265 177L266 178L265 177z"/>
<path style="fill:#706851; stroke:none;" d="M395.667 177.333L396.333 177.667L395.667 177.333M399 180L400 181L406 179L399 180z"/>
<path style="fill:#9a8062; stroke:none;" d="M492 177L492 181L493 181L492 177M264 178L265 179L264 178M263 179L264 180L263 179M262 180L263 181L262 180M260 183L261 184L260 183z"/>
<path style="fill:#706851; stroke:none;" d="M411 183L417 189L411 183z"/>
<path style="fill:#9a8062; stroke:none;" d="M493 183L494 184L493 183z"/>
<path style="fill:#a79f94; stroke:none;" d="M493 184L492.688 215L514 246L515 246L493.995 214L493 184z"/>
<path style="fill:#9a8062; stroke:none;" d="M492.333 185.667L492.667 186.333L492.333 185.667M257 186L258 187L257 186M256 187L257 188L256 187z"/>
<path style="fill:#706851; stroke:none;" d="M391 187L390 189L392 189L391 187z"/>
<path style="fill:#9a8062; stroke:none;" d="M255 188L256 189L255 188z"/>
<path style="fill:#706851; stroke:none;" d="M398 190L402 192L401 189L398 190z"/>
<path style="fill:#9a8062; stroke:none;" d="M254 190L255 191L254 190M492 190L492 194L493 194L492 190M253.333 191.667L253.667 192.333L253.333 191.667z"/>
<path style="fill:#706851; stroke:none;" d="M491 191L490 198L487 201L490 201L490 202C484.788 207.514 488.748 214.379 490 221L493 219L491 224C510.893 233.892 516.409 253.299 519.899 274.015C520.921 280.078 524.134 283.577 523 290L525 290L526 303L529 304C525.72 310.561 529.483 311.966 532 317C534.233 321.465 530.568 324.705 532 329C533.73 334.191 536.688 339.753 538 345C539.465 350.859 541.771 364.443 536 363C536.35 371.127 541.172 374.808 543.443 382C545.592 388.807 544.125 394.396 545.032 401C546.085 408.666 550.434 416.289 552.115 424C556.065 442.121 559.065 462.459 560.83 481C561.462 487.636 560.423 494.443 561.91 501C566.816 522.637 580.3 541.955 584.625 564C588.284 582.652 584.193 604.305 583.835 623C583.736 628.168 588.956 632.665 588.509 637.576C587.991 643.27 581.253 649.089 578.645 654C575.93 659.113 576.605 664.585 575 670C579.378 671.015 584.353 669.809 587 666C590.887 666.545 595.241 663.191 598.796 664.518C606.602 667.432 597.189 678.43 594 681L595 677C590.796 678.564 586.924 680.117 587 685L593 682C586.456 690.035 580.723 690.342 571 688L571 689L592 693L592 691L585 691L585 690C593.066 688.922 611.534 671.589 600.771 663.619C593.582 658.295 582.619 670.164 577 659L587 652L584 650L584 648C587.808 646.15 589.135 644.261 589 640L594 645L595 645L593 637L584 622C590.734 620.557 585.826 599.435 585.222 594C584.484 587.356 588.021 580.654 587.528 574C586.182 555.836 578.513 536.379 570.778 520C563.074 503.686 562.669 487.605 560.917 470C559.241 453.165 555.713 435.682 552.778 419C542.677 361.587 535.6 299.593 513.611 245C508.702 232.812 496.865 225.943 491.917 214C488.909 206.742 494.722 197.459 491 191z"/>
<path style="fill:#9a8062; stroke:none;" d="M252 193L253 194L252 193M251 195L252 196L251 195z"/>
<path style="fill:#706851; stroke:none;" d="M472.333 195.667L472.667 196.333L472.333 195.667z"/>
<path style="fill:#9a8062; stroke:none;" d="M250.333 196.667L250.667 197.333L250.333 196.667M249 199L250 200L249 199M248.333 200.667L248.667 201.333L248.333 200.667M491 200L491 204L492 204L491 200M247 202L246 206L247 206L247 202z"/>
<path style="fill:#706851; stroke:none;" d="M485 202L483 204L483 205C485.251 204.527 486.118 204.14 485 202M470 204L469 210L475 205L470 204z"/>
<path style="fill:#9a8062; stroke:none;" d="M245.333 206.667L245.667 207.333L245.333 206.667M244.333 208.667L244.667 209.333L244.333 208.667z"/>
<path style="fill:#706851; stroke:none;" d="M332 502C335.582 502.568 336.943 503.508 338 507L342 507L342 508L340 510L363 524L339 529L344 533L344 534L343 540L342 540L340 538L333.277 574.985L328 587L341 594L340 594C337.146 589.338 332.574 590.3 328 592C330.17 596.677 337.386 602.427 340 595L341 595C338.991 600.586 334.519 601.549 329 602L325 598C322.619 603.834 321.441 605.937 326 611L321 612C323.625 617.134 328.473 619.168 334 620L333 616C338.183 623.801 323.99 618.942 321 618L320 622L311 621L314 634L313 634L304 626L306 628L304 632L300 631L302 636L303 636L307 634L301 644L301 645C310.068 655.837 295.028 663.062 286 666L286 663L257 650.911L244.055 648.604L225.985 669.022L213 668L211 675C215.419 677.09 218.339 675.93 222.985 675.902C228.343 675.87 230.888 681.919 225.926 684.948C220.469 688.278 204.477 677.427 207 691L209 690L210 695C203.209 690.146 202.097 676.31 202 668L200 670C195.256 666.134 195.671 658.706 196 653C188.898 649.392 186.715 646.006 178 646C179.266 638.066 186.139 642.672 192 641L188 632L188 631L193 632C193.271 625.084 186.606 627.3 182.08 624.772C176.02 621.386 170.351 615.525 165.595 610.586C154.87 599.449 159.321 584.946 162 572L156 571L156 570L170 563L157 552L154 558L156 552C146.518 553.243 144.057 549.265 154 546L154 545L148 545C152.706 532.801 156.351 522.193 155.867 509C155.632 502.573 152.624 496.55 152.711 490C152.858 478.997 155.478 469.144 155 458L154 458C154 468.961 150.644 480.315 151.209 491C151.814 502.434 155.86 512.299 153.906 524C152.08 534.936 142.34 544.79 145 556L149 555L147 560L147 561C153.517 564.922 134.212 578.045 130 581L130 582L144 576C147.924 571.744 152.725 573.891 158 574C152.778 590.439 155.93 600.024 159.487 616C160.743 621.643 159.795 626.274 162 632L164 632L164 619L178 628L177 632C179.878 631.928 180.45 632.166 181 635L187 638C177.052 636.545 175.315 638.002 177 648L186 653L186 654L184 655C196.182 658.731 188.8 669.903 190.899 678.871C191.438 681.176 193.843 682.974 195 685L192 683L191 683C191.678 688.253 191.477 699.068 196 702L195 697L197 709L195 709L194 706L193 706L193 710L197 715C201.963 711.795 203.433 700.699 204 695L207 710L208 710L210 696C218.035 696.26 226.407 703.214 224 690C231.286 686.095 232.576 675.986 229 669C238.432 663.75 239.497 663.507 242 653L272 674C268.142 666.563 256.85 661.734 257 653C267.114 654.543 275.665 665.964 286 667.441C293.202 668.47 302.509 661.932 308 658L308 657L309 635L311 635L326 657L327 657L316 626L325 632L321 627L327 627L323 624L323 622C331.178 621.195 335.904 624.637 336 614C331.778 611.41 333.308 607.386 333 603C344.548 600.902 344.558 590.692 334 587L334 585L341 584C343.36 573.011 341.912 566.476 354 562C352.116 551.371 360.362 547.178 367.51 540.789C376.664 532.609 385.033 532.522 396 528.049C407.047 523.545 416.687 517.28 426 510L426 509L412.015 513.213L383 515C378.91 509.646 367.167 511.977 361 509.957C344.573 504.575 319.789 483.079 321 464C317.867 464 318.025 455.96 316.333 452.833C311.611 444.104 300.82 436.986 304 426C307.542 425.323 308.295 423.458 309 420L304 421L303 421C283.579 393.697 288.568 361.087 299 332L301 333L302 333L302 332C296.172 325.316 306.09 306.706 311 301L316.525 290.961L325 274C326.097 260.047 339.11 233.025 352 227.046C362.444 222.202 374.012 223.388 385 221.79C390.664 220.966 395.242 216.819 401 216.355C408.48 215.752 417.063 219.267 424 221.445C439.463 226.3 452.063 228.703 463.907 241.039C477.675 255.38 478.226 276.836 481.194 295C485.04 318.526 490.151 342.369 490.151 366.576C490.151 380.657 486.1 394.065 485 408L490 405L491 389C494.833 391.518 496.645 393.331 497 398L498 398C498.492 391.703 497.959 382.755 492 379L490 391L489 391L492.698 371.001L488.09 334L485.309 280.985L478.079 264L467.242 238.015L464 229L465 226L459 220L458 219L456 220L455 216L454 216L452 218L454 215C448.642 212.279 437.396 208.628 436 217L435 217L434 213L422 213L422 212L425 212C422.524 208.833 415.827 210.415 412.004 210.904C400.488 212.375 391.667 212.056 381 217.571C371.035 222.723 357.565 220.061 347.039 225.193C336.841 230.166 333.926 238.848 328.933 248C323.865 257.288 317.682 266.075 313.76 276C303.402 302.213 290.55 329.115 285.31 357C278.668 392.351 286.559 436.085 302.131 468C306.436 476.824 313.465 484.721 320.463 491.522C324.162 495.118 329.365 497.521 332 502z"/>
<path style="fill:#9a8062; stroke:none;" d="M491 209L491 214L492 214L491 209M243 210L243 213L244 213L243 210M242 213L242 216L243 216L242 213z"/>
<path style="fill:#372f0d; stroke:none;" d="M441 213L441 215L443 213L441 213z"/>
<path style="fill:#706851; stroke:none;" d="M454 214L455 215L454 214z"/>
<path style="fill:#9a8062; stroke:none;" d="M492 215L493 216L492 215M241 216L241 219L242 219L241 216M325 274C320.361 276.319 311.007 295.812 311 301C305.794 305.005 295.341 327.234 302 332L302 333L299 332C286.77 355.815 285.69 383.792 297.096 407.996C299.389 412.863 299.104 416.978 303 421L304 421L309 420L304 426C300.409 437.142 311.741 445.456 316.389 454.394C317.982 457.458 317.534 463.507 321 464C319.828 471.326 324.297 477.121 328.183 483C336.299 495.281 346.316 505.99 361 510.279C367.744 512.248 377.534 510.401 383 515L426 509L426 510C415.774 515.57 406.87 522.79 396 527.616C384.973 532.512 376.003 532.267 366.745 540.789C359.678 547.295 351.464 551.224 354 562C342.065 565.227 341.808 573.038 341 584L334 585L334 587C343.544 591.75 344.056 599.707 333 603C332.928 607.444 330.718 612.185 336 614C335.75 624.338 330.565 620.545 323 622L323 624L327 627L321 627L325 632L316 626C314.48 636.125 323.211 647.899 327 657L326 657L311 635L309 635C307.682 639.783 305.297 653.099 308 657L308 658L286 668L286 669L295 673L294 669L308 665L308 663L305 662L318 647C323.212 657.466 333.977 677.919 344 684C342.272 668.389 323.203 656.739 321.619 640.834C320.996 634.583 330.264 631.692 333.479 627.556C339.07 620.363 340.85 609.847 345 602L349 604C356.167 589.973 353.939 574.799 372 569L371.279 556.224L378.541 550.099L385.184 540.721L403 530.808L420.052 522.598L418.143 537L406.043 563.089L398 579C398.92 586.871 405.381 596.14 412.174 600.451C415.61 602.63 421.251 601.165 423.378 605.344C425.237 608.996 421.414 616.783 421 621L426 623L428 638C434.528 638.173 437.841 646.033 433 643L432 643L446 665L443 663L438 675L443 676C438.952 689.529 444.415 696 458 696L457 699L466 695L466 694L463 695L449.221 681.925L448.788 663L440 637C434.717 635.058 432.394 627.373 432 622L429 623C428.817 614.555 432.755 607.55 427.325 600.059C423.138 594.282 413.779 595.358 412.228 586.985C410.033 575.127 421.596 564.024 419 552C432.502 545.188 427.414 518.09 432.589 506.17C435.048 500.506 442.093 494.823 446.08 490C454.41 479.924 462.452 468.884 468 457L449 481L450 484C443.999 485.943 440.028 492.035 435.05 495.696C428.757 500.324 414.608 506.563 407 507.787C395.606 509.62 380.046 507.455 369.093 504.208C363.793 502.638 362.068 497.133 356 497C354.534 492.812 348.447 490.579 348.161 485.976C347.838 480.762 354.319 480.114 358 479.579C369.222 477.95 380.899 480.289 392 477L389 474L389 473L404 466C400.704 460.627 388.138 458.53 382 457L382 456L391 454L381 447L380 447L373 451L373 452L381 453L381 455L376 454C372.463 457.107 369.636 453.981 367 451L372 451L372 449C367.159 447.562 363.46 439.984 370.133 437.693C374.222 436.289 391.231 438.066 395 440L396 440C401.292 437 413.47 437.398 417 443L418 443L418 439C424.869 438.458 435.968 435.301 434 446L417 444L416 449L419 453C422.085 452.137 424.855 449.009 427.892 448.627C433.497 447.92 432.805 459.687 433 463C441.417 462.039 440.509 453.512 443.258 447.039C444.982 442.977 449.04 439.711 448.809 435.001C448.536 429.448 442.762 425.779 439.804 421.536C432.524 411.096 429.47 397.773 419 390C419.509 396.178 422.951 399.508 424.828 405.039C426.215 409.128 425.177 413.752 426.18 418C427.23 422.447 429.63 428.615 427.338 433.061C424.006 439.525 415.091 435.855 410 434.049C391.323 427.425 372.232 427.998 353 428L352 420C362.216 427.374 370.042 419.547 380 418.97C384.471 418.711 388.162 423.635 393 424L394 412L396 413C399.384 410.436 405.523 411.993 408.11 408.366C410.105 405.568 406.109 403.637 403.995 402.921C398.466 401.047 392.007 402.907 391 409L390 409C388.908 402.102 381.834 397.134 376 394L376 390C372.419 391.74 357.478 400.281 357.493 389.956C357.499 385.632 362.771 382.129 364 378C346.296 379.856 343.145 414.338 323.054 412.473C315.333 411.756 315.429 400.043 313.208 395.054C312.145 392.665 309.58 391.778 308.131 389.702C302.523 381.666 292.264 360.159 306.055 353.438C312.099 350.491 321.179 355.053 327 357.064C337.801 360.796 360.754 365.751 370.91 358.89C382.65 350.961 387.09 328.299 376.501 317.789C364.763 306.137 340.224 300.323 324 303C323.903 295.388 334.021 283.228 340 279L340 278L337 277L345 272C344.504 260.79 341.093 249.934 347.389 240.054C353.068 231.142 366.41 228.76 376 227.041C383.347 225.724 390.66 221.491 397.961 220.823C401.569 220.493 404.415 223.343 407.965 223.761C420.189 225.201 430.887 224.996 443 229.21C452.525 232.523 458.777 245.297 468 247L474.971 273L476.481 288.039L486 336C491.126 323.784 483.759 307.024 481.373 295C476.405 269.964 475.899 244.495 451 229.613C439.173 222.543 414.791 215.19 401 216.192C394.836 216.64 390.009 220.916 384 221.79C373.013 223.388 361.443 222.201 351 227.046C338.907 232.658 324.888 260.715 325 274M494.333 218.667L494.667 219.333L494.333 218.667M240.333 219.667L240.667 220.333L240.333 219.667z"/>
<path style="fill:#a79f94; stroke:none;" d="M345 272L337 277L340 278L340 279L337 279C336.471 289.538 322.395 291.351 324 303C340.819 301.597 364.525 305.762 376.501 318.529C387.056 329.782 381.889 353.511 367.996 359.943C356.759 365.145 336.05 359.753 325 355.936C319.105 353.899 308.921 349.511 303.499 354.564C289.281 367.815 307.384 384.637 312.694 395.143C316.216 402.11 316.038 416.512 327.999 411.647C344.496 404.938 347.534 382.335 364 378C362.137 381.844 357.039 385.492 356.89 389.956C356.534 400.607 372.446 392.457 376 390L376 394C381.294 398.166 388.073 402.231 390 409L391 409C392.411 404.309 396.998 401.592 402 402.657C403.815 403.043 408.756 404.651 408.218 407.265C407.267 411.881 398.577 410.05 396 413L394 412L393 424C388.416 423.293 385.41 418.935 381 418.532C377.294 418.193 374.339 421.401 371 422.44C364.618 424.425 357.797 422.753 352 420L353 428C371.338 428 390.253 427.462 408 433.691C412.785 435.371 422.926 439.868 426.896 434.566C429.895 430.562 427.822 423.365 426.721 419.015C425.554 414.406 426.545 409.534 425.189 405.039C423.543 399.58 419.816 395.937 419 390C428.109 399.466 431.866 410.843 439.231 421.536C442.029 425.597 448.246 429.81 448.577 435.001C448.857 439.385 444.401 443.13 442.876 447.039C440.368 453.468 440.947 461.357 433 463C432.92 459.485 433.918 447.17 427.892 447.921C424.825 448.302 421.816 451.697 419 453L416 449L417 440C410.595 439.191 401.266 435.484 396 440L395 440C392.149 437.852 371.63 435.857 368.514 438.032C363.283 441.682 367.127 448.205 372 449L372 451L367 451C368.98 454.352 372.955 457.953 376 454L381 455L381 453L373 452L373 451L380 447L381 447L391 454L382 456L382 457L404 466L389 473L389 474L392 477C380.724 479.686 369.308 477.881 358 479.425C353.978 479.975 347.454 480.373 347.658 485.976C347.828 490.628 353.863 493.296 356 497C361.478 497.466 363.372 502.551 368.184 504.283C371.704 505.55 375.892 504.396 379.576 504.987C384.533 505.782 388.966 508.65 394 508.942C406.825 509.686 424.551 503.505 435.05 496.325C440.375 492.684 444.264 486.996 450 484L449 481C453.145 479.577 454.95 475.03 457.677 471.731C468.319 458.859 472.779 443.42 477.173 427.715C481.484 412.306 487.104 397.084 488.826 381C491.066 360.078 488.137 335.651 484.386 315C482.721 305.835 478.802 297.149 476.789 288C475.63 282.736 476.362 277.233 474.984 271.999C472.814 263.758 468.2 255.524 468 247C459.023 244.351 453.592 232.547 444 229.21C431.598 224.895 420.451 225.314 408.004 223.525C404.383 223.005 401.742 220.103 397.961 220.525C390.566 221.351 383.517 225.499 376.09 226.792C362.135 229.221 346.509 233.231 342.603 249C341.341 254.098 344.089 266.554 345 272z"/>
<path style="fill:#372f0d; stroke:none;" d="M448 220L449 221L448 220z"/>
<path style="fill:#9a8062; stroke:none;" d="M495 220L496 221L495 220M239.333 221.667L239.667 222.333L239.333 221.667z"/>
<path style="fill:#372f0d; stroke:none;" d="M456.333 221.667L456.667 222.333L456.333 221.667z"/>
<path style="fill:#9a8062; stroke:none;" d="M496 221L497 222L496 221M238 223L238 226L239 226L238 223M498 224L499 225L498 224M237 226L237 229L238 229L237 226M500 226L501 227L500 226z"/>
<path style="fill:#ccc9c8; stroke:none;" d="M392 233L383 243L383 244L389 246L391 251L388 250L387 265L389 265L387 267L392 273L392 274L391 277L388 278L389 280L389 285L386 288L390 293L393 295L390 294C392.118 297.271 400.054 300.188 403 297L404 297L409 301L408 304L414 309C426.095 308.22 445.671 309.941 457 314.563C461.422 316.367 464.47 320.245 469 322L468 310L465 310L468 305L463 305C464.548 301.738 464.6 300.207 461 299L461 296L458 297C457.642 293.128 459.519 286.968 455 286L457 277L457 276L453 278C452.856 275.338 452.181 274.364 455 274L455 273L450 272L450 276L449 276L448 268L451 270L450 266L453 264L450 265L449 265L445 255L450 255L450 251L444 248L446 244L434 237L435 231L429 231L430 235L420 231L419 231L414 235L413 230L408 232L409 230L408 230L404 230L398 232L398 227C394.238 227.996 392.185 228.933 392 233z"/>
<path style="fill:#9a8062; stroke:none;" d="M501 227L502 228L501 227M503 229L504 230L503 229M236.333 230.667L236.667 231.333L236.333 230.667M504 230L505 231L504 230M505 231L506 232L505 231M235.333 232.667L235.667 233.333L235.333 232.667M506 232L507 233L506 232z"/>
<path style="fill:#a79f94; stroke:none;" d="M404 233L404 235L406 235L406 233L404 233z"/>
<path style="fill:#706851; stroke:none;" d="M466 233L466 234L469 234L466 233z"/>
<path style="fill:#9a8062; stroke:none;" d="M234.333 234.667L234.667 235.333L234.333 234.667M508 235L509 236L508 235M233 236L234 237L233 236M509 236L510 237L509 236M232.333 237.667L232.667 238.333L232.333 237.667M510 238L511 239L510 238M231 239L232 240L231 239M511.333 239.667L511.667 240.333L511.333 239.667M230.333 240.667L230.667 241.333L230.333 240.667M229 242L230 243L229 242z"/>
<path style="fill:#a79f94; stroke:none;" d="M391.333 242.667L391.667 243.333L391.333 242.667z"/>
<path style="fill:#9a8062; stroke:none;" d="M512 242L513 243L512 242M228.333 244.667L228.667 245.333L228.333 244.667z"/>
<path style="fill:#a79f94; stroke:none;" d="M386 244L387 245L386 244z"/>
<path style="fill:#9a8062; stroke:none;" d="M513 244L514 245L513 244M227 246L228 247L227 246M514.333 246.667L514.667 247.333L514.333 246.667z"/>
<path style="fill:#ccc9c8; stroke:none;" d="M386 247L387 248L386 247z"/>
<path style="fill:#a79f94; stroke:none;" d="M515 247L516 252L517 252L515 247z"/>
<path style="fill:#9a8062; stroke:none;" d="M226.333 248.667L226.667 249.333L226.333 248.667z"/>
<path style="fill:#ccc9c8; stroke:none;" d="M381 248L382 249L381 248z"/>
<path style="fill:#9a8062; stroke:none;" d="M225 250L226 251L225 250z"/>
<path style="fill:#ccc9c8; stroke:none;" d="M381 250L382 251L381 250z"/>
<path style="fill:#9a8062; stroke:none;" d="M515 250L516 251L515 250M224.333 251.667L224.667 252.333L224.333 251.667M516.333 252.667L516.667 253.333L516.333 252.667M223 253L223 256L224 256L223 253z"/>
<path style="fill:#a79f94; stroke:none;" d="M517.333 253.667L517.667 254.333L517.333 253.667z"/>
<path style="fill:#9a8062; stroke:none;" d="M517.333 255.667L517.667 256.333L517.333 255.667M222.333 256.667L222.667 257.333L222.333 256.667z"/>
<path style="fill:#ccc9c8; stroke:none;" d="M448.333 256.667L448.667 257.333L448.333 256.667z"/>
<path style="fill:#a79f94; stroke:none;" d="M518 256L519 262L520 262L518 256z"/>
<path style="fill:#ccc9c8; stroke:none;" d="M383 257L384 258L383 257z"/>
<path style="fill:#9a8062; stroke:none;" d="M221.333 258.667L221.667 259.333L221.333 258.667z"/>
<path style="fill:#ccc9c8; stroke:none;" d="M450 258L451 262L452 262L450 258z"/>
<path style="fill:#9a8062; stroke:none;" d="M518.333 259.667L518.667 260.333L518.333 259.667z"/>
<path style="fill:#ccc9c8; stroke:none;" d="M383 260L384 261L383 260z"/>
<path style="fill:#9a8062; stroke:none;" d="M220 261L221 262L220 261M219 262L220 263L219 262z"/>
<path style="fill:#a79f94; stroke:none;" d="M446.667 262.333L447.333 262.667L446.667 262.333z"/>
<path style="fill:#9a8062; stroke:none;" d="M519 262L520 263L519 262z"/>
<path style="fill:#a79f94; stroke:none;" d="M520 263L522 273L523 273L520 263z"/>
<path style="fill:#9a8062; stroke:none;" d="M218 264L219 265L218 264z"/>
<path style="fill:#a79f94; stroke:none;" d="M403 264L401 270C403.456 268.234 404.118 266.881 403 264z"/>
<path style="fill:#9a8062; stroke:none;" d="M217 265L218 266L217 265M520 266L521 267L520 266M216 267L217 268L216 267M215 268L216 269L215 268z"/>
<path style="fill:#a79f94; stroke:none;" d="M446 268L447 269L446 268z"/>
<path style="fill:#9a8062; stroke:none;" d="M214.333 269.667L214.667 270.333L214.333 269.667M521.333 270.667L521.667 271.333L521.333 270.667M213 271L214 272L213 271z"/>
<path style="fill:#a79f94; stroke:none;" d="M400 271L401 272L400 271z"/>
<path style="fill:#9a8062; stroke:none;" d="M212 273L213 274L212 273M522.333 273.667L522.667 274.333L522.333 273.667M211.333 274.667L211.667 275.333L211.333 274.667z"/>
<path style="fill:#a79f94; stroke:none;" d="M523 275L524 280L525 280L523 275z"/>
<path style="fill:#9a8062; stroke:none;" d="M210.333 276.667L210.667 277.333L210.333 276.667M523 278L524 279L523 278M209 279L210 280L209 279M524.333 280.667L524.667 281.333L524.333 280.667M208 281L209 282L208 281z"/>
<path style="fill:#ccc9c8; stroke:none;" d="M373 281L374 282L373 281z"/>
<path style="fill:#a79f94; stroke:none;" d="M525.333 281.667L525.667 282.333L525.333 281.667z"/>
<path style="fill:#9a8062; stroke:none;" d="M207 283L208 284L207 283M318 283L319 284L318 283M525.333 283.667L525.667 284.333L525.333 283.667z"/>
<path style="fill:#a79f94; stroke:none;" d="M453 284L454 285L453 284M526 284L527 289L528 289L526 284z"/>
<path style="fill:#9a8062; stroke:none;" d="M206.333 285.667L206.667 286.333L206.333 285.667z"/>
<path style="fill:#ccc9c8; stroke:none;" d="M459 286L460 287L459 286z"/>
<path style="fill:#706851; stroke:none;" d="M206 287L204 299L205 299L206 287z"/>
<path style="fill:#a79f94; stroke:none;" d="M390.333 287.667L390.667 288.333L390.333 287.667z"/>
<path style="fill:#9a8062; stroke:none;" d="M526 287L527 288L526 287M205.333 288.667L205.667 289.333L205.333 288.667z"/>
<path style="fill:#a79f94; stroke:none;" d="M204 289L189 326L190 326C194.37 315.859 208.237 300.844 204 289z"/>
<path style="fill:#9a8062; stroke:none;" d="M527 289L527 292L528 292L527 289z"/>
<path style="fill:#ccc9c8; stroke:none;" d="M384 290L384 295L384 296L389 295L389 291L384 290z"/>
<path style="fill:#a79f94; stroke:none;" d="M528 290L530 302L531 302L528 290z"/>
<path style="fill:#9a8062; stroke:none;" d="M204 293L205 294L204 293M528.333 294.667L528.667 295.333L528.333 294.667z"/>
<path style="fill:#706851; stroke:none;" d="M217.667 295.333L218.333 295.667L217.667 295.333z"/>
<path style="fill:#ccc9c8; stroke:none;" d="M382 295L383 296L382 295z"/>
<path style="fill:#a79f94; stroke:none;" d="M400 295L401 296L400 295M454 295L455 296L454 295M405 296L407 298L405 296z"/>
<path style="fill:#9a8062; stroke:none;" d="M203 297L203 300L204 300L203 297z"/>
<path style="fill:#706851; stroke:none;" d="M215 297L216 298L215 297z"/>
<path style="fill:#a79f94; stroke:none;" d="M459 297L460 298L459 297z"/>
<path style="fill:#9a8062; stroke:none;" d="M529.333 299.667L529.667 300.333L529.333 299.667z"/>
<path style="fill:#706851; stroke:none;" d="M203 300C200.039 315.354 186.528 331.526 180.025 346C166.049 377.109 154.284 417.698 154 452L155 452C157.773 416.91 166.455 376.604 182.247 345C187.476 334.534 192.169 324.053 198.2 314C200.702 309.829 204.885 304.992 203 300z"/>
<path style="fill:#ccc9c8; stroke:none;" d="M467 300L468 301L467 300M405 301L406 302L405 301z"/>
<path style="fill:#9a8062; stroke:none;" d="M202.333 302.667L202.667 303.333L202.333 302.667M530.333 302.667L530.667 303.333L530.333 302.667z"/>
<path style="fill:#ccc9c8; stroke:none;" d="M406 303L407 304L406 303z"/>
<path style="fill:#a79f94; stroke:none;" d="M531 303L532 311L533 311L531 303z"/>
<path style="fill:#9a8062; stroke:none;" d="M201 305L202 306L201 305M200 306L201 307L200 306z"/>
<path style="fill:#706851; stroke:none;" d="M306 324L331.015 314.418L352 318L352 321L366 318C356.832 300.073 308.151 300.485 306 324z"/>
<path style="fill:#9a8062; stroke:none;" d="M531.333 306.667L531.667 307.333L531.333 306.667M199 308L200 309L199 308M198 310L199 311L198 310M532 311L532 314L533 314L532 311M197 312L198 313L197 312z"/>
<path style="fill:#a79f94; stroke:none;" d="M533 312L533 315L534 315L533 312z"/>
<path style="fill:#9a8062; stroke:none;" d="M196 313L197 314L196 313M195 315L196 316L195 315M416 326L423 330C417.801 331.452 408.973 337.534 409.927 343.91C410.439 347.331 412.941 349.265 413 353C421.58 363.728 430.304 373.651 446 367L446 365C441.733 361.094 442.548 356.828 445 352L434 357L436 358L436 359L430 361L430 363L436 366L436 367L422.242 361.471L415 353C415.257 349.397 414.884 344.293 417.472 341.474C429.266 328.628 466.038 336.681 465 356L452 354L453 349L452 349L446 356L446 357C450.763 356.723 454.371 357.536 459 358.312C467.822 359.793 471.195 353.576 465.686 346.883C458.706 338.403 440.353 338.544 437 329C439.598 328.745 441.46 327.233 444.015 326.639C446.545 326.051 451.16 327.088 452.839 324.504C454.742 321.573 449.04 317.709 446.907 316.879C438.462 313.594 414.534 312.741 416 326M533 315L533 318L534 318L533 315z"/>
<path style="fill:#a79f94; stroke:none;" d="M534 316L535 324L536 324L534 316z"/>
<path style="fill:#9a8062; stroke:none;" d="M194 317L195 318L194 317z"/>
<path style="fill:#706851; stroke:none;" d="M429 325L448 325C442.926 318.232 432.732 315.018 429 325z"/>
<path style="fill:#9a8062; stroke:none;" d="M192 320L193 321L192 320M534.333 321.667L534.667 322.333L534.333 321.667M191 322L192 323L191 322M190 324L191 325L190 324M455.667 324.333L456.333 324.667L455.667 324.333M535 324L536 330L537 330L535 324M189 326L190 327L189 326z"/>
<path style="fill:#a79f94; stroke:none;" d="M536.333 326.667L536.667 327.333L536.333 326.667M188 327L184 336L185 336L188 327z"/>
<path style="fill:#706851; stroke:none;" d="M358 327C344.029 327.948 330.846 326.481 317 329.491C312.439 330.482 304.127 332.2 303.466 338.151C302.911 343.152 312.942 345.079 316.285 347.228C328.63 355.161 338.914 355.535 352.961 355.594C356.356 355.609 359.596 357.346 363.004 356.552C370.123 354.895 378.526 344.816 374.731 337.188C371.465 330.621 361.577 332.539 358 327z"/>
<path style="fill:#9a8062; stroke:none;" d="M468 327L471 330L468 327M188 328L189 329L188 328z"/>
<path style="fill:#372f0d; stroke:none;" d="M312 339C315.523 340.847 320.683 343.238 324.701 341.396C327.222 340.24 328.421 335.022 331.701 335.631C334.506 336.152 334.092 341.623 335.742 343.486C342.016 350.566 350.312 343.661 352 337C356.52 339.32 357.701 342.232 356 347L368 349L368 344L365 343C365.583 336.042 358.068 331.186 352 329.225C339.578 325.209 319.431 327.267 312 339z"/>
<path style="fill:#a79f94; stroke:none;" d="M537 328L538 336L539 336L537 328z"/>
<path style="fill:#9a8062; stroke:none;" d="M187 330L188 331L187 330M186 332L187 333L186 332M537.333 333.667L537.667 334.333L537.333 333.667z"/>
<path style="fill:#706851; stroke:none;" d="M346.667 334.333L347.333 334.667L346.667 334.333M415 353L421.437 361.475L436 367L436 366L430 363L430 361L436 359L436 358L434 357C441.223 355.574 445.572 352.82 446 345C450.751 346.367 452.623 349.087 452 354L465 356C466.434 346.677 458.687 341.874 451 338.569C435.765 332.02 415.432 333.705 415 353z"/>
<path style="fill:#9a8062; stroke:none;" d="M184 336L183 339L184 336z"/>
<path style="fill:#706851; stroke:none;" d="M299.667 336.333L300.333 336.667L299.667 336.333z"/>
<path style="fill:#9a8062; stroke:none;" d="M331 336L333 341L331 336M538 336L538 340L539 340L538 336z"/>
<path style="fill:#a79f94; stroke:none;" d="M183 337L184 338L183 337z"/>
<path style="fill:#372f0d; stroke:none;" d="M416 352L423 352C422.846 347.797 424.264 345.848 428 344C428.78 353.537 433.053 354.946 442 354L440 352L440 351L440 350L443 345L440 345L441 341L444 345L463 354C462.053 348.394 456.575 345.443 451.985 342.671C438.364 334.441 421.532 334.526 416 352z"/>
<path style="fill:#a79f94; stroke:none;" d="M182 338L181 342L182 342L182 338z"/>
<path style="fill:#706851; stroke:none;" d="M299 338L299 340L301 340L301 338L299 338z"/>
<path style="fill:#9a8062; stroke:none;" d="M353 338L354 343C349.188 344.396 346.665 348.939 353 350L351 346C354.839 343.825 356.146 341.516 353 338z"/>
<path style="fill:#a79f94; stroke:none;" d="M539 338L540 345L541 345L539 338M353 340L352 343L353 340z"/>
<path style="fill:#9a8062; stroke:none;" d="M487 340L488 354L489 354L487 340M182 341L183 342L182 341M352 341L353 342L352 341M181 342L182 343L181 342z"/>
<path style="fill:#ccc9c8; stroke:none;" d="M387 349C387.682 352.42 387.826 353.814 385 356L384 370C380.299 373.248 384.705 378.966 388 381C389.044 392.717 407.273 398.397 417 399L413 381C427.615 384.746 432.648 393.488 442.722 402.917C445.061 405.106 448.186 406.704 449 403C453.088 405.742 455.023 407.955 455 413L462 413L460 409L467 411C472.234 407.062 476.566 401.556 474 395L477 397L478 397L480 390L478 390L479 368L478 368L476 370L477 367L474 363L466 367L445 373C445 377.585 436.966 376.193 434 374.833C427.433 371.823 418.211 370.256 412.333 366C408.741 363.399 407.71 358.637 404 357C404.381 341.997 396.937 341.028 387 349z"/>
<path style="fill:#9a8062; stroke:none;" d="M539.333 342.667L539.667 343.333L539.333 342.667z"/>
<path style="fill:#a79f94; stroke:none;" d="M180 343L179 346L180 346L180 343z"/>
<path style="fill:#9a8062; stroke:none;" d="M441 343L442 344L441 343M180 344L181 345L180 344M446 345L446 346L450 346L446 345M540 345L540 349L541 349L540 345M179.333 346.667L179.667 347.333L179.333 346.667M450 346L451 347L450 346z"/>
<path style="fill:#a79f94; stroke:none;" d="M541 346L543 366L544 366L541 346M178 347C165.432 379.402 154.479 414.111 152.09 449C151.12 463.161 149.423 478.948 150.039 493C150.504 503.599 154.445 513.247 151.752 524C149.67 532.308 144.383 539.837 142.419 548C140.77 554.854 143.345 561.838 138.592 567.985C130.658 578.244 112.742 581.307 109 595L106 593L106 598C101.692 600.244 99.3165 605.955 96.7855 610.004C89.6699 621.388 77.8381 640.512 77 654L74 653L70 669L66 673L67 673L68 670L69 670L70 674L67 678L72 676C71.936 685.059 64.7182 689.838 70 699C65.9017 701.67 68.1399 705.746 68 710L66 707C64.298 723.964 76.0261 719.384 89 720L88 715C91.8309 713.687 99.4645 702.122 98.0833 698.054C96.9618 694.751 93.118 693.457 92.3565 689.946C91.3453 685.284 92.8867 678.863 93 674C96.7655 675.856 101.462 686.966 106.416 683.878C109.25 682.111 110.107 676.044 107.548 673.859C103.766 670.63 97.8692 674.57 94.8889 669.792C92.3247 665.682 93.2634 655.099 96.588 651.548C98.6727 649.321 102.167 648.917 103.381 645.811C105.044 641.559 101.097 637.29 101.149 633C101.22 627.104 105.418 621.891 105 616L109 616L111 609L108 610L111 603L114 609L115 609C116.069 602.323 112.303 595.516 121 593L120 588L126 601L126 611L117 613L120 617L114 616L116 620L113 619C110.507 623.246 105.688 628.364 111 633L108 641L111 642C109.628 650.869 112.599 658.944 113.861 667.3C114.99 674.771 112.749 683.134 114.134 690.999C115.002 695.925 118.354 698.024 123 697L120 691C123.361 688.757 122.279 685.702 122 682L123 682L125 684L123 676C135.189 684.686 150.496 704.131 148 720L151 716L152 716L152 720L177 720L177 711L178 710L183 720L185 720C184.754 715.215 183.952 710.599 179 709C180.683 706.311 184.672 698.851 188 702L189 702L192 692L188 697L187 697L189.527 660.148L175.966 654.581L176 635L168 635C172.258 628.876 174.324 624.656 167 620L165 638L164 638C160.965 623.977 153.034 609.931 154 595L155 579C152.307 578.64 152.62 577.56 153 575L126 583C131.549 578.015 140.399 574.849 142 567L145 567L143.738 549L153.957 521L151.019 489L153.896 470L160.668 406L173.424 363L178 347z"/>
<path style="fill:#9a8062; stroke:none;" d="M345.667 347.333L346.333 347.667L345.667 347.333M451 347L452 348L451 347M424 348L425 349L424 348M178 349L179 350L178 349M427.333 349.667L427.667 350.333L427.333 349.667M337 350L338 351L337 350M445 350L446 351L445 350M541 350L541 354L542 354L541 350M177 351L178 352L177 351M176 354L177 355L176 354M489 355L489 366L490 366L489 355M175.333 356.667L175.667 357.333L175.333 356.667z"/>
<path style="fill:#a79f94; stroke:none;" d="M403 357L406 361L403 357z"/>
<path style="fill:#9a8062; stroke:none;" d="M542 358L542 362L543 362L542 358M174.333 359.667L174.667 360.333L174.333 359.667z"/>
<path style="fill:#706851; stroke:none;" d="M501 360L500 362L502 362L501 360z"/>
<path style="fill:#9a8062; stroke:none;" d="M173.333 362.667L173.667 363.333L173.333 362.667z"/>
<path style="fill:#ccc9c8; stroke:none;" d="M481 364L482 365L481 364M314 365L315 366L314 365M316 366L314 368L312 375C317.701 378.801 331.753 381.989 330 389L335 388L343 382C348.325 380.145 352.971 373.33 345.891 369.934C338.114 366.204 324.388 365.015 316 366z"/>
<path style="fill:#9a8062; stroke:none;" d="M172.333 366.667L172.667 367.333L172.333 366.667M447.667 366.333L448.333 366.667L447.667 366.333M490 366L491 367L490 366M543 366L544 374L545 374L543 366M489 367L489 378L490 378L489 367z"/>
<path style="fill:#a79f94; stroke:none;" d="M544 367L546 380L547 380L544 367M474 368L475 369L474 368z"/>
<path style="fill:#9a8062; stroke:none;" d="M171.333 369.667L171.667 370.333L171.333 369.667z"/>
<path style="fill:#ccc9c8; stroke:none;" d="M310.333 370.667L310.667 371.333L310.333 370.667z"/>
<path style="fill:#9a8062; stroke:none;" d="M170 372L171 373L170 372M169.333 375.667L169.667 376.333L169.333 375.667z"/>
<path style="fill:#706851; stroke:none;" d="M500 377L499 380L500 377z"/>
<path style="fill:#9a8062; stroke:none;" d="M545.333 377.667L545.667 378.333L545.333 377.667M168 378L169 379L168 378M546 380L546 383L547 383L546 380M167.333 381.667L167.667 382.333L167.333 381.667z"/>
<path style="fill:#a79f94; stroke:none;" d="M547 381L548 390L549 390L547 381z"/>
<path style="fill:#706851; stroke:none;" d="M499.333 382.667L499.667 383.333L499.333 382.667z"/>
<path style="fill:#a79f94; stroke:none;" d="M331 383L332 384L331 383z"/>
<path style="fill:#9a8062; stroke:none;" d="M488 383L488 387L489 387L488 383M166.333 385.667L166.667 386.333L166.333 385.667M547 386L547 389L548 389L547 386z"/>
<path style="fill:#706851; stroke:none;" d="M242 387L244 391L242 387z"/>
<path style="fill:#9a8062; stroke:none;" d="M487 387L487 392L488 392L487 387M165 388L166 389L165 388M491 389L490 405L485 408L486 398L485 398L471 449L472 449L475 440L486 443L486 442C477.749 440.669 477.619 433.536 480 427L482 427L488 433L486 420L489 420L489 426L490 426C492.216 416.332 502.095 394.043 491 389M548 390L548 395L549 395L548 390M164.333 391.667L164.667 392.333L164.333 391.667z"/>
<path style="fill:#a79f94; stroke:none;" d="M549 392L549 397L550 397L549 392z"/>
<path style="fill:#9a8062; stroke:none;" d="M486 394L486 397L487 397L486 394M163.333 395.667L163.667 396.333L163.333 395.667z"/>
<path style="fill:#a79f94; stroke:none;" d="M496 396L497 397L496 396z"/>
<path style="fill:#9a8062; stroke:none;" d="M549 397L549 401L550 401L549 397z"/>
<path style="fill:#a79f94; stroke:none;" d="M550 398L551 411L552 411L550 398z"/>
<path style="fill:#9a8062; stroke:none;" d="M162.333 399.667L162.667 400.333L162.333 399.667z"/>
<path style="fill:#706851; stroke:none;" d="M496 400L492 420L493 420L496 400M361 404C362.997 408.877 369.029 413.442 373 408L380 411C379.575 397.917 369.592 402.819 361 404z"/>
<path style="fill:#9a8062; stroke:none;" d="M161 402L161 405L162 405L161 402z"/>
<path style="fill:#a79f94; stroke:none;" d="M472 402L473 403L472 402z"/>
<path style="fill:#372f0d; stroke:none;" d="M373 403L373 404L376 404L373 403z"/>
<path style="fill:#706851; stroke:none;" d="M394 407L403 406C400.243 402.224 396.74 404.046 394 407z"/>
<path style="fill:#ccc9c8; stroke:none;" d="M413 409L419 404L413 409z"/>
<path style="fill:#9a8062; stroke:none;" d="M160 406L160 410L161 410L160 406M550 406L550 410L551 410L550 406z"/>
<path style="fill:#a79f94; stroke:none;" d="M489 408L483 420L489 408M458 409L459 410L458 409z"/>
<path style="fill:#ccc9c8; stroke:none;" d="M462 410L463 411L462 410z"/>
<path style="fill:#9a8062; stroke:none;" d="M551 411L551 415L552 415L551 411M159.333 413.667L159.667 414.333L159.333 413.667z"/>
<path style="fill:#a79f94; stroke:none;" d="M552 414L553 421L554 421L552 414z"/>
<path style="fill:#9a8062; stroke:none;" d="M158 417L158 420L159 420L158 417z"/>
<path style="fill:#706851; stroke:none;" d="M329 417C322.445 422.157 320.58 424.679 320 433L324 456L321 457L321 459L327 462L325 458L328 457L326 454L329 455C328.787 447.464 334.917 445.268 341 448L340 450L354 459C352.542 453.472 341.047 443.897 347.502 437.562C352.81 432.352 365.303 438.615 369 433C361.331 432.066 328.947 434.04 343 420L343 419L329 420L329 417z"/>
<path style="fill:#9a8062; stroke:none;" d="M552 417L553 418L552 417z"/>
<path style="fill:#ccc9c8; stroke:none;" d="M402 429C406.039 430.549 414.482 435.081 418.254 431.257C421.121 428.351 418.642 418.615 414.025 418.752C411.318 418.832 404.71 427.02 402 429z"/>
<path style="fill:#a79f94; stroke:none;" d="M486 420L490 428L489 420L486 420z"/>
<path style="fill:#706851; stroke:none;" d="M491 420L490 427L492 427L491 420z"/>
<path style="fill:#9a8062; stroke:none;" d="M553 421L553 425L554 425L553 421M306.667 422.333L307.333 422.667L306.667 422.333z"/>
<path style="fill:#a79f94; stroke:none;" d="M412.667 422.333L413.333 422.667L412.667 422.333M554 422L554 427L555 427L554 422z"/>
<path style="fill:#9a8062; stroke:none;" d="M157.333 423.667L157.667 424.333L157.333 423.667M303 424L304 425L303 424z"/>
<path style="fill:#706851; stroke:none;" d="M484 425L485 426L484 425z"/>
<path style="fill:#ccc9c8; stroke:none;" d="M486 426L490 430L486 426z"/>
<path style="fill:#706851; stroke:none;" d="M437 427L440 444L441 444C443.336 437.587 443.462 430.953 437 427z"/>
<path style="fill:#a79f94; stroke:none;" d="M480 427C477.833 431.503 479.641 447.979 487.107 440.396C489.493 437.972 489.409 433.172 490 430L486 428L488 433L482 427L480 427M485 427L486 428L485 427z"/>
<path style="fill:#9a8062; stroke:none;" d="M490 427L490 431L491 431L490 427M554 427L554 433L555 433L554 427M156 428L156 432L157 432L156 428z"/>
<path style="fill:#ccc9c8; stroke:none;" d="M480 430L481 435L482 435L480 430z"/>
<path style="fill:#a79f94; stroke:none;" d="M555 430L559 460L560 460L555 430z"/>
<path style="fill:#706851; stroke:none;" d="M490 431L486 443C490.087 440.621 491.73 435.435 490 431z"/>
<path style="fill:#9a8062; stroke:none;" d="M489 432L489 435L490 435L489 432M155 433L155 440L156 440L155 433z"/>
<path style="fill:#372f0d; stroke:none;" d="M341 444C341 442.024 341.124 439.984 340.941 438.015C340.131 429.291 327.125 434.688 336.595 442.397C338.023 443.559 339.256 443.708 341 444z"/>
<path style="fill:#706851; stroke:none;" d="M370 434L370 436L386 437L370 434z"/>
<path style="fill:#a79f94; stroke:none;" d="M364 446C366.543 427.73 344.989 445.828 364 446z"/>
<path style="fill:#706851; stroke:none;" d="M388 436L389 437L388 436z"/>
<path style="fill:#9a8062; stroke:none;" d="M555 436L555 439L556 439L555 436z"/>
<path style="fill:#a79f94; stroke:none;" d="M348 443L351 438L348 443z"/>
<path style="fill:#706851; stroke:none;" d="M418 439C418.349 449.633 427.11 443.519 434 446C436.94 435.206 424.783 438.143 418 439z"/>
<path style="fill:#372f0d; stroke:none;" d="M420 445L429 441C424.104 438.686 420.473 439.066 420 445z"/>
<path style="fill:#9a8062; stroke:none;" d="M488 439L489 440L488 439z"/>
<path style="fill:#706851; stroke:none;" d="M353 440L353 446L354 446L353 440z"/>
<path style="fill:#ccc9c8; stroke:none;" d="M386 444C377.207 444.975 393.929 456.603 394.708 445.005C394.819 443.364 394.296 441.598 394 440L386 444M404 450C409.665 434.383 387.682 446.426 404 450z"/>
<path style="fill:#706851; stroke:none;" d="M475 440C477.604 443.925 481.587 443.961 486 444L486 443L475 440z"/>
<path style="fill:#9a8062; stroke:none;" d="M487 440L488 441L487 440M154 441L154 445L155 445L154 441z"/>
<path style="fill:#ccc9c8; stroke:none;" d="M409 449L411 449L411 441C407.432 443.079 407.935 445.273 409 449z"/>
<path style="fill:#9a8062; stroke:none;" d="M556 441L556 446L557 446L556 441z"/>
<path style="fill:#706851; stroke:none;" d="M474 442L474 445L475 445L474 442z"/>
<path style="fill:#ccc9c8; stroke:none;" d="M369 444C370.432 448.087 374.012 448.459 378 449L378 444L369 444z"/>
<path style="fill:#706851; stroke:none;" d="M473.333 445.667L473.667 446.333L473.333 445.667M472.333 447.667L472.667 448.333L472.333 447.667z"/>
<path style="fill:#9a8062; stroke:none;" d="M557 447L557 450L558 450L557 447z"/>
<path style="fill:#706851; stroke:none;" d="M471 449L468 458L469 458L471 449z"/>
<path style="fill:#9a8062; stroke:none;" d="M153 450L153 454L154 454L153 450M470 450L468 456L469 456L470 450M398.667 451.333L399.333 451.667L398.667 451.333z"/>
<path style="fill:#706851; stroke:none;" d="M153 454L154 455L153 454z"/>
<path style="fill:#ccc9c8; stroke:none;" d="M397 456L397 457L408 455L397 456z"/>
<path style="fill:#706851; stroke:none;" d="M520 454L521 455L520 454z"/>
<path style="fill:#9a8062; stroke:none;" d="M558 454L558 458L559 458L558 454M153 455L153 465L154 465L153 455z"/>
<path style="fill:#706851; stroke:none;" d="M329 457L330 458L329 457M356 458L359 461C358.972 463.437 359.556 463.303 362 463L356 458M467.333 458.667L467.667 459.333L467.333 458.667M321.333 460.667L321.667 461.333L321.333 460.667M466 460L465 463L466 460z"/>
<path style="fill:#9a8062; stroke:none;" d="M559 460L559 463L560 463L559 460z"/>
<path style="fill:#706851; stroke:none;" d="M464.333 463.667L464.667 464.333L464.333 463.667z"/>
<path style="fill:#a79f94; stroke:none;" d="M560 463L562 481L563 481L560 463z"/>
<path style="fill:#9a8062; stroke:none;" d="M459 465L460 466L459 465z"/>
<path style="fill:#706851; stroke:none;" d="M463.333 465.667L463.667 466.333L463.333 465.667z"/>
<path style="fill:#9a8062; stroke:none;" d="M560.333 466.667L560.667 467.333L560.333 466.667z"/>
<path style="fill:#706851; stroke:none;" d="M462 467L463 468L462 467M461.333 468.667L461.667 469.333L461.333 468.667M460 470L461 471L460 470M459.333 471.667L459.667 472.333L459.333 471.667z"/>
<path style="fill:#9a8062; stroke:none;" d="M561 472L561 478L562 478L561 472M153 473L153 477L154 477L153 473z"/>
<path style="fill:#706851; stroke:none;" d="M458 473L457 476L458 473M456 476L457 477L456 476M455.333 477.667L455.667 478.333L455.333 477.667z"/>
<path style="fill:#9a8062; stroke:none;" d="M152.333 479.667L152.667 480.333L152.333 479.667z"/>
<path style="fill:#706851; stroke:none;" d="M454 479L455 480L454 479M453 480L452 483L453 480z"/>
<path style="fill:#9a8062; stroke:none;" d="M562 481L562 485L563 485L562 481M151 483L151 487L152 487L151 483z"/>
<path style="fill:#706851; stroke:none;" d="M451 483L452 484L451 483z"/>
<path style="fill:#a79f94; stroke:none;" d="M563 483L564 502L565 502L563 483z"/>
<path style="fill:#ccc9c8; stroke:none;" d="M406 489L405 489C401.017 481.41 393.038 488.084 388 491L388 493L400 500L405 500L409 496L407 489L410 493L415 492L415 485C410.884 484.5 407.518 484.769 406 489z"/>
<path style="fill:#706851; stroke:none;" d="M450 484L449 487L450 484M448 487L449 488L448 487M447 488L448 489L447 488M446 489L447 490L446 489M445 490L444 493L445 490z"/>
<path style="fill:#9a8062; stroke:none;" d="M151 493L151 496L152 496L151 493z"/>
<path style="fill:#706851; stroke:none;" d="M443 493C439.661 496.822 433.861 501.307 432.279 506.17C427.893 519.646 431.523 542.573 419 552L412.228 587.961L427.981 602.005L429 623L432 622C432.176 627.437 434.227 635.74 440 637L448.788 664L448.528 681.925L463 695L484.867 683.61L492.235 673.323L508 675C509.198 659.159 520.971 671.011 528 673C526.9 670.714 525.77 667.451 524.03 665.6C517.761 658.929 507.896 670.545 502.001 670.406C497.4 670.297 493.863 665.539 489 665C488.999 675.923 485.703 681.31 476 686.691C472.249 688.772 467.218 691.998 463.738 687.717C461.813 685.347 462.014 682.005 460.143 679.594C456.995 675.538 452.012 673.615 451.148 668C450.347 662.794 453.935 656.922 452.361 652.089C450.868 647.503 446.332 643.593 444.338 639C441.34 632.095 444.972 622.608 435 621L436 616L433.451 603L426 583L422 584C418.903 572.101 426.101 560.296 429.077 549C431.687 539.094 431.604 528.743 435.015 519C437.492 511.923 445.088 500.53 443 493z"/>
<path style="fill:#9a8062; stroke:none;" d="M563 493L563 501L564 501L563 493z"/>
<path style="fill:#a79f94; stroke:none;" d="M401.667 498.333L402.333 498.667L401.667 498.333z"/>
<path style="fill:#9a8062; stroke:none;" d="M152 499L152 503L153 503L152 499M564 502L564 505L565 505L564 502z"/>
<path style="fill:#a79f94; stroke:none;" d="M565 503L567 511L568 511L565 503z"/>
<path style="fill:#9a8062; stroke:none;" d="M153 504L154 505L153 504M154 506L154 510L155 510L154 506M565 506L566 507L565 506M566 509L567 510L566 509M154.333 511.667L154.667 512.333L154.333 511.667M567.333 511.667L567.667 512.333L567.333 511.667z"/>
<path style="fill:#a79f94; stroke:none;" d="M568 512L570 518L571 518L568 512z"/>
<path style="fill:#9a8062; stroke:none;" d="M568 514L569 515L568 514z"/>
<path style="fill:#706851; stroke:none;" d="M175 515L175 519L176 519L175 515z"/>
<path style="fill:#9a8062; stroke:none;" d="M395 515L394 518L386 517C388.837 520.981 393.669 519.45 398 519L395 515M400 515L400 519L401 519L407 517L400 515M569.333 516.667L569.667 517.333L569.333 516.667M377 518L377 519L381 518L377 518M570.333 518.667L570.667 519.333L570.333 518.667z"/>
<path style="fill:#a79f94; stroke:none;" d="M571 519C576 537.28 586.222 553.747 587.826 573C589.559 593.795 582.367 616.149 591 636L593 635L594 647L593 643C586.312 645.203 586.42 650.981 593 653L593 654L585 653L578 660C583.602 669.588 595.588 658.047 602 665L603 665C600.146 658.203 593.807 647.812 600 641L596 638L596 637L598 635L597 634L595 636L594 636C591.323 622.534 588.086 610.266 587.375 596C586.931 587.088 589.373 578.074 588.961 569C588.338 555.276 580.227 529.219 571 519z"/>
<path style="fill:#9a8062; stroke:none;" d="M154.333 521.667L154.667 522.333L154.333 521.667z"/>
<path style="fill:#a79f94; stroke:none;" d="M372 569C354.533 572.235 353.832 590.491 349 604L345 602C338.918 609.673 339.211 620.055 332.787 627.556C329.276 631.657 320.666 634.365 321.322 640.834C322.945 656.847 340.952 668.683 344 684L318 647L305 662L308 663L308 665L294 669L295 673C283.726 667.737 275.856 661 263 661L274 676C263.836 669.451 255.878 656.399 243 655L247 669L245 666L244 666L235 667L230 677L230 678L232 687L229 687L229 692L222.921 700.181L211 697L207 720L219 720C219.081 715.692 221.039 714.422 225 716L226 716C229.092 713.459 231.634 712.198 231 708L238 707L240 683C237.718 680.446 238.893 675.236 243.171 675.174C247.58 675.109 254.031 681.538 256 685L269 688L263 677L284 683L273 668C287.269 670.098 296.724 676.091 308 684.885C310.777 687.051 315.716 693.228 319 690L317 690L319 686L315 682L316 682C318.53 684.418 320.051 681.497 321 679L335 678C335.914 680.266 336.011 680.406 338 679C341.14 688.837 351.341 693.164 355.258 702.015C358.127 708.498 351.323 717.013 361 720L358 707L359 707C359.352 713.42 362.684 718.226 369 720C364.301 713.189 359.878 712.506 361 703L354 693L360 699L362 698L362 701L365 698L375 698L380 695C380.36 692.307 381.44 692.62 384 693L384 694C380.421 696.087 373.348 705.351 377 709L377 710L378 718L375 717C379.162 722.771 393.43 720 400 720C410.008 720 428.553 723.625 437.61 719.397C442.293 717.211 445.103 710.224 448.584 706.618C453.965 701.045 462.586 698.23 469 694L469 693L457 699L458 696C443.904 696 440.613 688.87 443 676L438 675L443 663L446 665L432 643L433 643C436.201 646.635 437.285 637.728 428 638L426 623L423 624L421 621C421.785 616.955 425.599 609.089 423.968 605.344C422.112 601.085 415.564 602.243 412.174 599.811C405.281 594.865 400.33 586.906 398 579L406.075 564.039L418.421 537L420.378 522.404L403 530.255L378.541 549.427L370.717 556.224L372 569z"/>
<path style="fill:#9a8062; stroke:none;" d="M571 521L572 522L571 521M572 523L573 524L572 523M153.333 525.667L153.667 526.333L153.333 525.667M573 526L574 527L573 526M152.333 527.667L152.667 528.333L152.333 527.667M574 528L575 529L574 528M575.333 530.667L575.667 531.333L575.333 530.667M151 531L152 532L151 531M150.333 532.667L150.667 533.333L150.333 532.667M576 534L577 535L576 534M149.333 535.667L149.667 536.333L149.333 535.667z"/>
<path style="fill:#706851; stroke:none;" d="M339 536L340 537L339 536z"/>
<path style="fill:#9a8062; stroke:none;" d="M577 536L578 537L577 536M148.333 538.667L148.667 539.333L148.333 538.667M578.333 538.667L578.667 539.333L578.333 538.667M147.333 541.667L147.667 542.333L147.333 541.667M579.333 541.667L579.667 542.333L579.333 541.667M146.333 543.667L146.667 544.333L146.333 543.667M580.333 544.667L580.667 545.333L580.333 544.667M145 545L146 546L145 545M144 546L145 547L144 546M581 547L582 548L581 547M143 548L143 554L144 554L143 548M582.333 550.667L582.667 551.333L582.333 550.667z"/>
<path style="fill:#706851; stroke:none;" d="M163 552L163 553L171 559C175.983 552.752 167.756 552.04 163 552z"/>
<path style="fill:#9a8062; stroke:none;" d="M583.333 552.667L583.667 553.333L583.333 552.667M144 554L145 567L142 570C145.706 568.621 154.609 563.555 147 561L147 560L149 555L144 554M584.333 556.667L584.667 557.333L584.333 556.667z"/>
<path style="fill:#372f0d; stroke:none;" d="M158.667 557.333L159.333 557.667L158.667 557.333z"/>
<path style="fill:#9a8062; stroke:none;" d="M585.333 559.667L585.667 560.333L585.333 559.667M586 562L586 569L587 569L586 562M345 563L346 564L345 563M153 568L154 569L153 568M141.333 570.667L141.667 571.333L141.333 570.667M587 570L587 574L588 574L587 570M140 572L141 573L140 572M145 573L145 574L152 574L145 573M139 573L140 574L139 573M135 577L138 574L135 577M144.333 574.667L144.667 575.333L144.333 574.667M152 574C152.304 576.935 151.777 579.017 155 579L155 584L156 584L158 574L152 574M134 582L144 577C139.139 574.445 136.033 577.618 134 582M587 576L587 580L588 580L587 576M126 583L134 583L134 582L130 582L130 581L135 577L126 583M151 579L151 582L153 581L153 580L151 579M339 581L340 582L339 581M586 582L586 587L587 587L586 582M154 584L154 590L155 590L154 584z"/>
<path style="fill:#ccc9c8; stroke:none;" d="M119 587L120 588L119 587M127 587L128 588L127 587z"/>
<path style="fill:#9a8062; stroke:none;" d="M145 587C145.819 590.822 148.604 590.145 150 587L146 589L147 587L145 587z"/>
<path style="fill:#706851; stroke:none;" d="M146 589L149 587L146 589z"/>
<path style="fill:#ccc9c8; stroke:none;" d="M120 588L121 593C111.903 594.447 115.421 602.431 115 609L114 609L111 603L108 610L111 609L109 616L105 616C104.222 621.736 101.129 627.181 101.059 633C101.011 636.905 104.359 641.199 103.289 644.906C102.237 648.545 98.0714 648.888 95.9846 651.549C93.0764 655.257 91.8522 666.734 94.6929 670.651C97.8597 675.018 102.981 671.088 106.718 673.877C109.395 675.875 109.07 681.217 106.415 683.208C101.932 686.57 97.1373 675.228 93 674C92.7056 679.042 91.0376 686.002 92.321 690.871C93.1998 694.205 97.2668 695.551 97.8241 699.018C98.4215 702.734 91.1655 713.197 88 715L89 720L123 720L119 711L118 711L112 715L117 710L114 700C121.264 704.06 126.317 716.413 135 715C137.123 718.783 146.715 723.778 148.516 716.856C149.701 712.304 146.297 706.895 144.46 703C139.85 693.226 133.367 680.953 123 676L125 684L123 682L122 682L120 691L123 697C118.266 697.397 114.962 694.883 114.137 690.004C112.855 682.412 115.24 674.472 114.317 667.3C113.222 658.788 110.493 651.191 111 642L108 641L111 633C105.091 627.091 111.96 623.878 113 619L116 620L114 616L120 617L117 613L126 611L126 601C126.1 595.97 123.714 591.339 120 588M117 589L118 590L117 589z"/>
<path style="fill:#9a8062; stroke:none;" d="M585 589L585 596L586 596L585 589z"/>
<path style="fill:#ccc9c8; stroke:none;" d="M114 590L115 591L114 590z"/>
<path style="fill:#9a8062; stroke:none;" d="M153 590L154 595L153 599C155.753 596.029 154.827 593.397 153 590z"/>
<path style="fill:#706851; stroke:none;" d="M529 592L539.966 601.576L547 611L550 609L550 603L529 592z"/>
<path style="fill:#9a8062; stroke:none;" d="M335 592L338 595L335 592M531 592L532 593L531 592M111 595L112 601L113 595L111 595z"/>
<path style="fill:#706851; stroke:none;" d="M193 596L195 598L193 596z"/>
<path style="fill:#a79f94; stroke:none;" d="M347 598L348 599L347 598z"/>
<path style="fill:#9a8062; stroke:none;" d="M540 598L540 600L542 600L542 598L540 598M154 599L154 602L155 602L154 599z"/>
<path style="fill:#a79f94; stroke:none;" d="M342 599L343 600L342 599z"/>
<path style="fill:#9a8062; stroke:none;" d="M153 602L158 616L159 616L153 602M130 604L131 609L136 603L130 604M586 603L586 606L587 606L586 603z"/>
<path style="fill:#706851; stroke:none;" d="M133 604L133 606L135 604L133 604M188.333 606.667L188.667 607.333L188.333 606.667z"/>
<path style="fill:#ccc9c8; stroke:none;" d="M101.667 607.333L102.333 607.667L101.667 607.333z"/>
<path style="fill:#706851; stroke:none;" d="M560.333 607.667L560.667 608.333L560.333 607.667M563 608C563.255 611.298 563.485 613.066 567 613C569.559 620.682 575.713 606.598 563 608z"/>
<path style="fill:#9a8062; stroke:none;" d="M138 608L141 611L138 608M329 608L330 609L329 608M566 608L567 612L569 610L568 614L568 615L572 614L566 608M587 608L587 620L588 620L587 608z"/>
<path style="fill:#706851; stroke:none;" d="M554 609L552 617L558 617L558 616L554 609z"/>
<path style="fill:#a79f94; stroke:none;" d="M568 610L571 614L568 610M114.667 613.333L115.333 613.667L114.667 613.333M110 615L111 618L112 618L113 615L110 615z"/>
<path style="fill:#ccc9c8; stroke:none;" d="M136 646C144.016 643.328 141.538 625.075 139 620C136.92 615.839 133.172 618.311 134 615C124.67 616.562 133.309 640.208 136 646z"/>
<path style="fill:#9a8062; stroke:none;" d="M151 615L150 622L154 622L151 615M159 616L160 620L161 620L159 616z"/>
<path style="fill:#706851; stroke:none;" d="M319 616L321 618L319 616z"/>
<path style="fill:#9a8062; stroke:none;" d="M328 616L328 617L332 618L332 617L328 616z"/>
<path style="fill:#706851; stroke:none;" d="M151 617L153 621L151 617z"/>
<path style="fill:#ccc9c8; stroke:none;" d="M121 618L122 619L121 618z"/>
<path style="fill:#9a8062; stroke:none;" d="M164 619L166 625L167 625L167 620L172 625C172.676 619.954 168.275 618.527 164 619z"/>
<path style="fill:#706851; stroke:none;" d="M549 619L551 626L551 619L549 619z"/>
<path style="fill:#ccc9c8; stroke:none;" d="M118 620L119 621L118 620z"/>
<path style="fill:#9a8062; stroke:none;" d="M159 620L160 621L159 620M433 620L434 621L433 620M158 622L159 628L160 628L158 622M584 622L585 625L586 625L587 622L584 622M111 623L111 628L112 628L114 624L111 623z"/>
<path style="fill:#706851; stroke:none;" d="M326 623L327 624L326 623M111.333 624.667L111.667 625.333L111.333 624.667z"/>
<path style="fill:#ccc9c8; stroke:none;" d="M119 624L120 625L119 624M126 625L127 626L126 625z"/>
<path style="fill:#9a8062; stroke:none;" d="M165 625L162 632L164 638L165 638L165 625M173 625L168 635L176 638L187 638L181 635L182 632L177 632L178 628L173 625M586.333 625.667L586.667 626.333L586.333 625.667M160.333 628.667L160.667 629.333L160.333 628.667M588 628L588 633L589 633L588 628z"/>
<path style="fill:#ccc9c8; stroke:none;" d="M113 629L114 630L113 629z"/>
<path style="fill:#372f0d; stroke:none;" d="M183.667 629.333L184.333 629.667L183.667 629.333z"/>
<path style="fill:#a79f94; stroke:none;" d="M428 629L429 630L428 629z"/>
<path style="fill:#9a8062; stroke:none;" d="M161 630L162 631L161 630z"/>
<path style="fill:#ccc9c8; stroke:none;" d="M111 631L112 632L111 631M119 631L118 633L119 631M122 631L123 632L122 631M113.333 633.667L113.667 634.333L113.333 633.667z"/>
<path style="fill:#9a8062; stroke:none;" d="M589 633L590 634L589 633M590 634L591 638L592 638L593 635L590 634z"/>
<path style="fill:#a79f94; stroke:none;" d="M108 635L109 636L108 635z"/>
<path style="fill:#9a8062; stroke:none;" d="M148 636L149 637L148 636z"/>
<path style="fill:#ccc9c8; stroke:none;" d="M119 637L120 638L119 637z"/>
<path style="fill:#9a8062; stroke:none;" d="M146 637C144.582 641.98 145.658 644.584 151 645L151 640L150 640L146 643L146 637z"/>
<path style="fill:#706851; stroke:none;" d="M146 643C149.307 641.726 150.14 640.546 150 637C146.679 638.099 146.263 639.59 146 643z"/>
<path style="fill:#9a8062; stroke:none;" d="M150.333 637.667L150.667 638.333L150.333 637.667z"/>
<path style="fill:#ccc9c8; stroke:none;" d="M422 637L422 641L423 641L424 637L422 637z"/>
<path style="fill:#9a8062; stroke:none;" d="M593.333 637.667L593.667 638.333L593.333 637.667M175 638L176 639L175 638M594.333 639.667L594.667 640.333L594.333 639.667M100 640L100 643L101 643L100 640M159 640L156 649L160 650L159 640M430.333 640.667L430.667 641.333L430.333 640.667M589 640L593 643L589 640z"/>
<path style="fill:#ccc9c8; stroke:none;" d="M111 641L112 642L111 641z"/>
<path style="fill:#706851; stroke:none;" d="M552 641L552 644L553 644L552 641z"/>
<path style="fill:#9a8062; stroke:none;" d="M595 641L595 644L596 644L595 641M175 642L176 643L175 642z"/>
<path style="fill:#ccc9c8; stroke:none;" d="M122 643L123 646L119 644L118 648L125 646L125 644L122 643z"/>
<path style="fill:#706851; stroke:none;" d="M185 643L186 644L185 643z"/>
<path style="fill:#ccc9c8; stroke:none;" d="M419 643L398 664L400 663L400 664L396 668L396 661C392.602 661.953 390.454 665.026 395 666L394 673C401.591 670.419 421.339 651.813 419 643z"/>
<path style="fill:#9a8062; stroke:none;" d="M176 644L176 648L177 648L176 644M589 644L590 645L589 644M593 644L595 647L593 644z"/>
<path style="fill:#706851; stroke:none;" d="M471 645L481 657C486.336 651.185 476.306 645.546 471 645z"/>
<path style="fill:#9a8062; stroke:none;" d="M588 645L587 647L589 647L588 645z"/>
<path style="fill:#ccc9c8; stroke:none;" d="M143.333 646.667L143.667 647.333L143.333 646.667M395.333 646.667L395.667 647.333L395.333 646.667z"/>
<path style="fill:#9a8062; stroke:none;" d="M125 647L124 650L128 651L125 647z"/>
<path style="fill:#a79f94; stroke:none;" d="M310 647L309 651C311.841 650.391 312.742 648.572 310 647z"/>
<path style="fill:#ccc9c8; stroke:none;" d="M401 647L402 648L401 647z"/>
<path style="fill:#9a8062; stroke:none;" d="M586 647L584 650L585 651L586 651L587 651L586 647z"/>
<path style="fill:#706851; stroke:none;" d="M125 648L126 649L125 648z"/>
<path style="fill:#9a8062; stroke:none;" d="M177 648C171.616 661.585 187.496 651.238 189.397 661.059C191.628 672.59 184.271 685.154 187 697L188 697L192 692L189 702L188 702L188 699L179 709L180 709L181 709L186 701L186 715L185 715L183 709L182 709L185 720L186 720L187 713L191 713L192 714C190.716 721.638 198.516 720 204 720L207 717C208.366 711.056 207.765 699.957 204 695L197 715L193 710L193 706L194 706L195 709L197 709L195 697L196 702L191 683L192 683L195 685C194.607 681.66 191.753 681.979 190.833 679C188.616 671.82 196.735 657.9 186 655.333C184.047 654.866 185.483 654.323 186 654L177 648z"/>
<path style="fill:#ccc9c8; stroke:none;" d="M590 650L593 648L590 650z"/>
<path style="fill:#706851; stroke:none;" d="M297.981 649.631C293.443 650.579 281.998 663.732 291.045 662.199C296.256 661.316 307.639 647.614 297.981 649.631z"/>
<path style="fill:#ccc9c8; stroke:none;" d="M395 649L396 650L395 649M140 650L139 655L141 655L140 650M119 652C120.499 658.301 117.379 672.552 128 671L129 653L119 652z"/>
<path style="fill:#706851; stroke:none;" d="M175 653L175 654L179 655L180 652L179 651L175 653z"/>
<path style="fill:#9a8062; stroke:none;" d="M586 652L593 654L586 652z"/>
<path style="fill:#a79f94; stroke:none;" d="M308.333 652.667L308.667 653.333L308.333 652.667z"/>
<path style="fill:#ccc9c8; stroke:none;" d="M113 653L114 654L113 653z"/>
<path style="fill:#9a8062; stroke:none;" d="M242 653C238.855 663.615 237.365 662.426 229 669L229 677L235 667L244 666L245 666L247 669L246 655L242 653M257 653C256.546 659.099 260.215 661.826 265 665L263 661L273 661L257 653z"/>
<path style="fill:#ccc9c8; stroke:none;" d="M384.333 653.667L384.667 654.333L384.333 653.667z"/>
<path style="fill:#9a8062; stroke:none;" d="M584 653L585 654L584 653M147 655L147 656L150 655L149 659L150 659L150 654L147 655z"/>
<path style="fill:#ccc9c8; stroke:none;" d="M404 654L400 659L404 654z"/>
<path style="fill:#9a8062; stroke:none;" d="M583 654L584 655L583 654M595 654L598 661L595 654z"/>
<path style="fill:#706851; stroke:none;" d="M148 655L148 659L149 659L150 655L148 655z"/>
<path style="fill:#9a8062; stroke:none;" d="M247 655L248 656L247 655z"/>
<path style="fill:#706851; stroke:none;" d="M471 655L476 662C475.699 658.048 474.882 656.178 471 655M497 656L499 660L500 660L501 655L497 656z"/>
<path style="fill:#9a8062; stroke:none;" d="M582 655L583 656L582 655z"/>
<path style="fill:#ccc9c8; stroke:none;" d="M588.667 655.333L589.333 655.667L588.667 655.333M144.333 656.667L144.667 657.333L144.333 656.667z"/>
<path style="fill:#9a8062; stroke:none;" d="M249 656L250 657L249 656z"/>
<path style="fill:#a79f94; stroke:none;" d="M258 656C259.62 658.941 260.686 659.499 264 659L258 656z"/>
<path style="fill:#ccc9c8; stroke:none;" d="M376 656L373 665L370 664L370 668L366 668L364 674L363 674L363 667L357 666L345 675L341 673C342.598 677.801 344.81 680.591 350 681L348 685L348 686L350 689L351 689L351 684L357 694L362 691L363 696C368.484 695.235 372.999 694.661 375 689L370 689L370 687L374 685L370 684L370 683L372 681C368.593 681 370.657 677.287 373 676.667C374.561 676.254 377.299 677.821 379 678L379 674C374.774 674.015 371.722 673.716 370 678L364 675L364 674C367.607 673.205 369.804 672.643 371 669L378 670L375 662L381 658L376 656M394 656L395 657L394 656z"/>
<path style="fill:#9a8062; stroke:none;" d="M581 656L582 657L581 656z"/>
<path style="fill:#ccc9c8; stroke:none;" d="M79 657L79 662L80 662L81 657L79 657z"/>
<path style="fill:#9a8062; stroke:none;" d="M250.667 657.333L251.333 657.667L250.667 657.333M580.333 657.667L580.667 658.333L580.333 657.667M147 658L148 659L147 658z"/>
<path style="fill:#ccc9c8; stroke:none;" d="M249 658C252.459 665.064 256.951 676.233 266 671L249 658z"/>
<path style="fill:#9a8062; stroke:none;" d="M252 658L253 659L252 658z"/>
<path style="fill:#706851; stroke:none;" d="M457 658L458 659L457 658z"/>
<path style="fill:#9a8062; stroke:none;" d="M74 659L73 662L74 659M253 659L254 660L253 659M577 662L578 662L580 661C578.583 658.477 577.517 659.542 577 662z"/>
<path style="fill:#ccc9c8; stroke:none;" d="M580 662C584.411 663.047 588.097 663.735 590 659L580 662M591 659L591 662L593 662L593 659L591 659M113.333 660.667L113.667 661.333L113.333 660.667M145 660L146 663L147 663L145 660z"/>
<path style="fill:#9a8062; stroke:none;" d="M255 660L256 661L255 660z"/>
<path style="fill:#ccc9c8; stroke:none;" d="M367 660L368 661L367 660z"/>
<path style="fill:#a79f94; stroke:none;" d="M125 661L126 662L125 661z"/>
<path style="fill:#9a8062; stroke:none;" d="M178 665L184 663L183 667C185.864 662.117 180.75 660.825 178 665M193.333 661.667L193.667 662.333L193.333 661.667M256 661L257 662L256 661M274 661L275 662L274 661z"/>
<path style="fill:#706851; stroke:none;" d="M329 661L330 662L329 661z"/>
<path style="fill:#ccc9c8; stroke:none;" d="M384 661L384 662L387 662L384 661z"/>
<path style="fill:#9a8062; stroke:none;" d="M598.667 661.333L599.333 661.667L598.667 661.333M275.667 662.333L276.333 662.667L275.667 662.333z"/>
<path style="fill:#a79f94; stroke:none;" d="M400 662L401 663L400 662z"/>
<path style="fill:#9a8062; stroke:none;" d="M578 662L579 663L578 662M594.667 662.333L595.333 662.667L594.667 662.333M600 662L601 663L600 662z"/>
<path style="fill:#ccc9c8; stroke:none;" d="M76 663L77 664L76 663z"/>
<path style="fill:#706851; stroke:none;" d="M176 666L183 669L184 663L176 666z"/>
<path style="fill:#9a8062; stroke:none;" d="M277.667 663.333L278.333 663.667L277.667 663.333z"/>
<path style="fill:#ccc9c8; stroke:none;" d="M381 663L384 665L381 663z"/>
<path style="fill:#9a8062; stroke:none;" d="M579.667 663.333L580.333 663.667L579.667 663.333M592.667 663.333L593.333 663.667L592.667 663.333M601 663L602 664L601 663z"/>
<path style="fill:#ccc9c8; stroke:none;" d="M82 664L83 665L82 664z"/>
<path style="fill:#9a8062; stroke:none;" d="M173.667 664.333L174.333 664.667L173.667 664.333M193 664L194 665L193 664M280 664L281 665L280 664z"/>
<path style="fill:#706851; stroke:none;" d="M331 664L332 665L331 664z"/>
<path style="fill:#ccc9c8; stroke:none;" d="M415 665L415 666L417 665L417 666L413 666L412 670L408 669L408 667C399.684 671.008 398.588 683.871 409 685L411 680L407 671L411 670L413 674L413 679L411 678L411 679L422 678L418 664L415 665z"/>
<path style="fill:#706851; stroke:none;" d="M526 664C528.304 669.499 533.941 670.547 537 665L526 664z"/>
<path style="fill:#9a8062; stroke:none;" d="M584 664L585 665L584 664M175 665L175 667L177 665L175 665M261 665L262 666L261 665M265 665L266 666L265 665M281 665L282 666L281 665z"/>
<path style="fill:#a79f94; stroke:none;" d="M603 665C606.262 678.71 596.194 681.594 589 691C592.708 691 595.723 690.107 595 693C604.397 690.207 610.472 672.402 603 665z"/>
<path style="fill:#ccc9c8; stroke:none;" d="M146 666L147 667L146 666z"/>
<path style="fill:#9a8062; stroke:none;" d="M262 666L263 667L262 666M266 666L267 667L266 666M282 666L283 667L282 666M512 666C508.613 669.052 507.045 672.073 510 676L511 675C509.656 671.186 510.046 669.753 513 667L512 666z"/>
<path style="fill:#a79f94; stroke:none;" d="M511 675C496.129 675.957 480.448 681.562 470 693C483.288 688.475 491.575 677.01 506 677L502 692L505 687C512.168 683.575 511.231 672.92 517.238 670.176C521.596 668.185 533.966 686.566 537 690L538 690L551 678L558 696L559 696L560 693C569.207 697.422 568.218 703.429 580 700L585 720L587 718L588 718L590 720L592 715L594 715L595 720L597 720L594 693C583.285 693.846 577.934 691.859 568 688L568 695L549 674.319L538 675.06L526 675C521.791 667.297 505.016 663.16 511 675z"/>
<path style="fill:#9a8062; stroke:none;" d="M517 666L517 667L521 668L521 667L517 666M580 666L580 668L583 668L583 666L580 666M603 666L604 667L603 666M117 667L116 673C119.178 671.193 119.502 669.687 117 667M151 667L156 677L157 677L157 667L151 667z"/>
<path style="fill:#ccc9c8; stroke:none;" d="M159 667L159 677L160 677L162 673L159 667z"/>
<path style="fill:#9a8062; stroke:none;" d="M176 667L177 668L176 667M267 667L268 668L267 667M283.667 667.333L284.333 667.667L283.667 667.333z"/>
<path style="fill:#706851; stroke:none;" d="M573.333 667.667L573.667 668.333L573.333 667.667M156 668L156 675L157 675L156 668z"/>
<path style="fill:#9a8062; stroke:none;" d="M177 668L178 669L177 668M268 668L269 669L268 668z"/>
<path style="fill:#ccc9c8; stroke:none;" d="M273 668L284 683C276.036 677.625 272.308 677.043 263 677L269 688L256 685C254.529 681.053 247.784 674.598 243.171 674.627C238.87 674.655 236.826 680.6 240 683L238 707L231 708L226 716L225 716C223.104 714.633 217.227 714.385 219.407 718.416C221.124 721.59 231.961 720.168 234.999 719.876C249.883 718.447 265.87 720 281 720C276.682 715.03 272.822 714.376 273 707L282 707L282 720L292 720L292 719L289 718L289 717C294.613 717.377 301.971 713.343 304 720L358 720L355.307 701.039L338 679L336 681L335 678L321 679L316 682L315 682L319 686C317.938 687.888 316.148 690.078 319 690C314.498 691.621 308.534 684.538 305 681.793C295.033 674.051 285.703 669.108 273 668z"/>
<path style="fill:#706851; stroke:none;" d="M583 672C587.006 678.851 593.514 673.719 597 669L583 672z"/>
<path style="fill:#9a8062; stroke:none;" d="M178 669L181 673L183 669L178 669M214 669L214 675L215 675L216 669L214 669M269 669L270 670L269 669z"/>
<path style="fill:#ccc9c8; stroke:none;" d="M392 669L393 670L392 669z"/>
<path style="fill:#a79f94; stroke:none;" d="M396 669L397 670L396 669z"/>
<path style="fill:#ccc9c8; stroke:none;" d="M505 687L502 692L506 677C494.389 677.001 491.293 681.92 481.961 687.355C467.35 695.865 444.416 701.819 439 720L468 720L467 715L473 720C500.614 718.607 529.116 720 557 720C562.505 720 581.393 722.94 584.971 718.397C588.545 713.861 581.313 704.473 580 700L569.339 700.918L560 693L559 696L558 696C558.926 688.963 554.631 683.69 551 678L538 690C534.525 686.336 521.54 666.701 516.495 670.047C511.232 673.537 510.913 682.732 505 687z"/>
<path style="fill:#706851; stroke:none;" d="M549 669L531 672L531 673C535.618 674.112 541.841 676.33 545 672C553.969 675.494 562.713 683.487 565 693L566 693L566 687L570 688L570 687L549 669z"/>
<path style="fill:#9a8062; stroke:none;" d="M245.667 670.333L246.333 670.667L245.667 670.333M270 670L271 671L270 670M603 670L600 680C603.642 677.772 604.607 673.942 603 670M267 671L268 672L267 671M523 671L524 672L523 671M157.333 672.667L157.667 673.333L157.333 672.667M271 672L272 673L271 672z"/>
<path style="fill:#a79f94; stroke:none;" d="M404 672L404 674L406 674L406 672L404 672z"/>
<path style="fill:#706851; stroke:none;" d="M478 672L479 673L478 672z"/>
<path style="fill:#9a8062; stroke:none;" d="M488 680L499 676C493.681 670.167 489.842 673.397 488 680M525 674L533 674L525 674M544 675L547 672L544 675M586 674L590 673L586 674M265 673L268 676L265 673M269 673L270 674L269 673M271 674L274 676L273 673L271 674z"/>
<path style="fill:#ccc9c8; stroke:none;" d="M385 673L386 674L385 673z"/>
<path style="fill:#9a8062; stroke:none;" d="M501 674L501 675L506 675L501 674M548.667 673.333L549.333 673.667L548.667 673.333M100 679L105 681L104 674L100 679z"/>
<path style="fill:#a79f94; stroke:none;" d="M111 674L112 675L111 674z"/>
<path style="fill:#ccc9c8; stroke:none;" d="M173 674L170 685L174 682L175 682L175 687L176 687L173 674z"/>
<path style="fill:#9a8062; stroke:none;" d="M534 674L534 675L540 675L534 674M550 674L551 675L550 674z"/>
<path style="fill:#ccc9c8; stroke:none;" d="M129.333 675.667L129.667 676.333L129.333 675.667z"/>
<path style="fill:#9a8062; stroke:none;" d="M435 675L436 676L435 675M540 675L540 676L544 676L540 675M551 675L552 676L551 675M140 676C138.34 680.513 139.466 683.054 142 687L144 687C145.014 683.228 142.448 674.276 141 681L140 681L140 676M552 676L553 677L552 676z"/>
<path style="fill:#ccc9c8; stroke:none;" d="M74 677L75 678L74 677z"/>
<path style="fill:#706851; stroke:none;" d="M140 677L140 681L141 681L140 677z"/>
<path style="fill:#a79f94; stroke:none;" d="M403 677L404 678L403 677z"/>
<path style="fill:#ccc9c8; stroke:none;" d="M423 677L424 678L423 677z"/>
<path style="fill:#706851; stroke:none;" d="M480.333 677.667L480.667 678.333L480.333 677.667z"/>
<path style="fill:#9a8062; stroke:none;" d="M553 677L556 679L553 677z"/>
<path style="fill:#ccc9c8; stroke:none;" d="M159 678L161 705L162 705L162 700L165 702C165 692.908 166.529 684.432 159 678z"/>
<path style="fill:#9a8062; stroke:none;" d="M230 678L231 679L230 678M231 679L224 690C224.592 695.164 224.374 699.738 218 698C222.495 708.747 225.919 692.451 229 692L229 687L232 687L231 679z"/>
<path style="fill:#ccc9c8; stroke:none;" d="M395 679L396 680L395 679z"/>
<path style="fill:#9a8062; stroke:none;" d="M556 679L557 680L556 679z"/>
<path style="fill:#706851; stroke:none;" d="M143 680L143 684L144 684L143 680z"/>
<path style="fill:#ccc9c8; stroke:none;" d="M417 680L417 682L419 682L417 680z"/>
<path style="fill:#9a8062; stroke:none;" d="M557 680L558 681L557 680M74.3333 681.667L74.6667 682.333L74.3333 681.667z"/>
<path style="fill:#ccc9c8; stroke:none;" d="M149 681C148.044 685.656 149.299 689.037 153 692L149 681z"/>
<path style="fill:#a79f94; stroke:none;" d="M408 681L409 682L408 681z"/>
<path style="fill:#9a8062; stroke:none;" d="M558 681L559 682L558 681M599 681L600 682L599 681M347.667 682.333L348.333 682.667L347.667 682.333z"/>
<path style="fill:#ccc9c8; stroke:none;" d="M374 682L375 686L377 686L378 683L374 682z"/>
<path style="fill:#9a8062; stroke:none;" d="M454.667 682.333L455.333 682.667L454.667 682.333M559 682L563 687L559 682z"/>
<path style="fill:#a79f94; stroke:none;" d="M274 683C272.23 686.489 271.981 688.662 276 690L276 684L274 683z"/>
<path style="fill:#ccc9c8; stroke:none;" d="M398 683L399 684L398 683M411 683L410 686L413 686L411 683z"/>
<path style="fill:#9a8062; stroke:none;" d="M485 683L486 684L485 683z"/>
<path style="fill:#a79f94; stroke:none;" d="M523 683L525 690L526 690L523 683z"/>
<path style="fill:#706851; stroke:none;" d="M581 684L581 685L586 685L581 684z"/>
<path style="fill:#9a8062; stroke:none;" d="M596 683L597 684L596 683z"/>
<path style="fill:#ccc9c8; stroke:none;" d="M597 688L594 687L594 688C598.439 688.825 600.5 687.17 602 683C598.603 683.707 596.936 684.405 597 688z"/>
<path style="fill:#9a8062; stroke:none;" d="M212 684C207.371 699.031 223.293 688.987 212 684M484 684L485 685L484 684M595 684L596 685L595 684z"/>
<path style="fill:#a79f94; stroke:none;" d="M616.333 684.667L616.667 685.333L616.333 684.667M61 685L62 686L61 685z"/>
<path style="fill:#ccc9c8; stroke:none;" d="M72 685L72 688L74 688L74 685L72 685z"/>
<path style="fill:#9a8062; stroke:none;" d="M273 685C274.119 687.607 275.341 688.068 276 685L273 685z"/>
<path style="fill:#706851; stroke:none;" d="M274 685L275 686L274 685z"/>
<path style="fill:#ccc9c8; stroke:none;" d="M419 685L420 686L419 685z"/>
<path style="fill:#9a8062; stroke:none;" d="M482 685L483 686L482 685z"/>
<path style="fill:#a79f94; stroke:none;" d="M510 688L516 688C513.987 685.18 511.927 685.105 510 688z"/>
<path style="fill:#9a8062; stroke:none;" d="M594 685L595 686L594 685M156 686L155 699L156 699L157 692L158 694L159 694L156 686z"/>
<path style="fill:#ccc9c8; stroke:none;" d="M316.333 686.667L316.667 687.333L316.333 686.667z"/>
<path style="fill:#9a8062; stroke:none;" d="M480 686L481 687L480 686M593 686L594 687L593 686z"/>
<path style="fill:#a79f94; stroke:none;" d="M212 687L212 691L216 689L212 687M249 687L246 693L253 692L249 687z"/>
<path style="fill:#9a8062; stroke:none;" d="M345 687L353 694L353 693L345 687z"/>
<path style="fill:#ccc9c8; stroke:none;" d="M404 687L405 688L404 687z"/>
<path style="fill:#9a8062; stroke:none;" d="M478 687L479 688L478 687z"/>
<path style="fill:#a79f94; stroke:none;" d="M549 687L546 692L551 693L552 692L549 687z"/>
<path style="fill:#9a8062; stroke:none;" d="M563.333 687.667L563.667 688.333L563.333 687.667M566 687L568 695L569 687L566 687z"/>
<path style="fill:#ccc9c8; stroke:none;" d="M171.667 688.333L172.333 688.667L171.667 688.333z"/>
<path style="fill:#9a8062; stroke:none;" d="M249 688L250 689L249 688z"/>
<path style="fill:#ccc9c8; stroke:none;" d="M399 688L400 689L399 688M408 688L409 689L408 688z"/>
<path style="fill:#9a8062; stroke:none;" d="M476 688L477 689L476 688M569.667 688.333L570.333 688.667L569.667 688.333M590 688L591 689L590 688z"/>
<path style="fill:#ccc9c8; stroke:none;" d="M77 689L80 693L77 689z"/>
<path style="fill:#706851; stroke:none;" d="M249.333 689.667L249.667 690.333L249.333 689.667z"/>
<path style="fill:#9a8062; stroke:none;" d="M474 689L475 690L474 689M549 689L548 691L550 691L549 689M571.667 689.333L572.333 689.667L571.667 689.333M589 689L590 690L589 689M82 690L81 694L84 690L82 690z"/>
<path style="fill:#ccc9c8; stroke:none;" d="M174 690L175 691L174 690z"/>
<path style="fill:#9a8062; stroke:none;" d="M248 690L249 691L248 690M250 690L251 691L250 690z"/>
<path style="fill:#a79f94; stroke:none;" d="M366 690L366 691L369 691L366 690z"/>
<path style="fill:#ccc9c8; stroke:none;" d="M404 690L405 691L404 690z"/>
<path style="fill:#9a8062; stroke:none;" d="M564.333 690.667L564.667 691.333L564.333 690.667M574 690L575 691L574 690M585 690L585 691L589 691L585 690M596 690L597 691L596 690z"/>
<path style="fill:#706851; stroke:none;" d="M597 690L598 691L597 690z"/>
<path style="fill:#9a8062; stroke:none;" d="M598 690L599 691L598 690z"/>
<path style="fill:#ccc9c8; stroke:none;" d="M418 691L421 702L424 706L420 706L421 712L429 713L430 716L440 710L437 702L438 698L418 691z"/>
<path style="fill:#9a8062; stroke:none;" d="M470 691L471 692L470 691M576 691L577 692L576 691M592 693L596 692L592 693z"/>
<path style="fill:#706851; stroke:none;" d="M157 692L159 706L160 706L157 692z"/>
<path style="fill:#9a8062; stroke:none;" d="M167 692L167 697L168 697L167 692z"/>
<path style="fill:#372f0d; stroke:none;" d="M220 692C220.513 694.475 220.604 694.575 223 694L220 692z"/>
<path style="fill:#ccc9c8; stroke:none;" d="M380 695L375 698L365 698C363.449 699.806 363.137 700.163 362 698L361 698C360.901 709.92 360.838 719.822 376 720L375 717L378 718L377 710L377 709C374.979 704.246 380.409 697.076 384 694C381.858 692.262 380.362 692.049 380 695z"/>
<path style="fill:#9a8062; stroke:none;" d="M469 692L470 693L469 692M577 692L578 693L577 692z"/>
<path style="fill:#706851; stroke:none;" d="M167.333 693.667L167.667 694.333L167.333 693.667z"/>
<path style="fill:#a79f94; stroke:none;" d="M281 693L281 694L284 694L281 693M286 693L292 698C292.067 693.91 289.813 693.29 286 693z"/>
<path style="fill:#9a8062; stroke:none;" d="M354 693L360 704C361.375 698.485 359.186 695.071 354 693M360 693L362 695L362 693L360 693M467 693L468 694L467 693M579 693L579 694L590 694L579 693z"/>
<path style="fill:#ccc9c8; stroke:none;" d="M172 694L172 696L174 696L172 694z"/>
<path style="fill:#a79f94; stroke:none;" d="M421 694L421 696L423 696L423 694L421 694M475 694L478 702L475 694z"/>
<path style="fill:#ccc9c8; stroke:none;" d="M180 695L184 699L180 695M152 696C152.425 700.916 152.566 708.26 157 711C156.707 706.389 155.899 698.754 152 696z"/>
<path style="fill:#9a8062; stroke:none;" d="M159.333 696.667L159.667 697.333L159.333 696.667M210 699L211 699L218 698C215.438 695.438 210.904 694.782 210 699z"/>
<path style="fill:#a79f94; stroke:none;" d="M323 696L324 697L323 696z"/>
<path style="fill:#9a8062; stroke:none;" d="M576 696L577 697L576 696M581 696L581 699L582 699L581 696z"/>
<path style="fill:#ccc9c8; stroke:none;" d="M89 697L92 704L91 697L89 697z"/>
<path style="fill:#a79f94; stroke:none;" d="M325 698L326 699L325 698z"/>
<path style="fill:#9a8062; stroke:none;" d="M363 698L364 699L363 698z"/>
<path style="fill:#ccc9c8; stroke:none;" d="M383 698L384 699L383 698M416 698L417 699L416 698z"/>
<path style="fill:#9a8062; stroke:none;" d="M578 698L579 699L578 698z"/>
<path style="fill:#a79f94; stroke:none;" d="M603.667 698.333L604.333 698.667L603.667 698.333M496 699L493 704L497 704L496 699M114 700L117 710L112 715C115.675 715.54 116.927 714.536 118 711L119 711C120.394 716.37 126.59 724.191 132 718L133 718L134 718L138 720L135 715L114 700z"/>
<path style="fill:#9a8062; stroke:none;" d="M156 700L157 701L156 700M160 700L160 705L161 705L160 700z"/>
<path style="fill:#ccc9c8; stroke:none;" d="M178 700L177 704L181 704L178 700M230 700L233 702L230 700z"/>
<path style="fill:#372f0d; stroke:none;" d="M159.333 701.667L159.667 702.333L159.333 701.667z"/>
<path style="fill:#ccc9c8; stroke:none;" d="M167 701C165.249 706.079 164.168 714.656 170 717C171.186 712.255 169.982 704.916 167 701z"/>
<path style="fill:#a79f94; stroke:none;" d="M178 701L179 702L178 701z"/>
<path style="fill:#706851; stroke:none;" d="M185 701L180 708L185 715L186 715L185 701z"/>
<path style="fill:#9a8062; stroke:none;" d="M209 701L208 709L209 709L209 701z"/>
<path style="fill:#a79f94; stroke:none;" d="M368.667 701.333L369.333 701.667L368.667 701.333z"/>
<path style="fill:#9a8062; stroke:none;" d="M587 701L588 706L589 706L587 701M175 702C172.897 704.425 172.521 706.255 176 707L176 706L175 702z"/>
<path style="fill:#706851; stroke:none;" d="M587 702L587 707L588 707L587 702z"/>
<path style="fill:#9a8062; stroke:none;" d="M157 703L158 704L157 703z"/>
<path style="fill:#706851; stroke:none;" d="M175 703L174 706L175 703z"/>
<path style="fill:#a79f94; stroke:none;" d="M563 703L564 715C566.288 710.611 567.702 706.132 563 703z"/>
<path style="fill:#9a8062; stroke:none;" d="M586 703L586 707L587 707L586 703M158.333 704.667L158.667 705.333L158.333 704.667z"/>
<path style="fill:#a79f94; stroke:none;" d="M188 704L190 712C192.351 708.486 191.497 706.152 188 704M429 704L430 705L429 704M434 704L434 705L438 705L434 704M54 705L53 712C56.7979 710.74 56.9792 708.674 56 705L54 705z"/>
<path style="fill:#ccc9c8; stroke:none;" d="M163 705L164 706L163 705z"/>
<path style="fill:#a79f94; stroke:none;" d="M363 705L361 709L362 709L363 705z"/>
<path style="fill:#9a8062; stroke:none;" d="M364.667 705.333L365.333 705.667L364.667 705.333z"/>
<path style="fill:#a79f94; stroke:none;" d="M366 705L366 706L369 707L366 705z"/>
<path style="fill:#ccc9c8; stroke:none;" d="M381 705L382 706L381 705z"/>
<path style="fill:#a79f94; stroke:none;" d="M431 705L432 706L431 705z"/>
<path style="fill:#ccc9c8; stroke:none;" d="M589.333 705.667L589.667 706.333L589.333 705.667z"/>
<path style="fill:#9a8062; stroke:none;" d="M159 706L160 707L159 706z"/>
<path style="fill:#a79f94; stroke:none;" d="M196 706L197 707L196 706z"/>
<path style="fill:#706851; stroke:none;" d="M363 706L365 715L367 715C369.151 710.297 368.468 706.893 363 706z"/>
<path style="fill:#9a8062; stroke:none;" d="M367 706L368 707L367 706z"/>
<path style="fill:#a79f94; stroke:none;" d="M571 706L570 710L571 710L574 709L571 715L572 715C574.331 711.1 575.195 708.608 571 706z"/>
<path style="fill:#9a8062; stroke:none;" d="M55 707L55 711L56 711L55 707M212 707L212 716L213 716L212 707z"/>
<path style="fill:#a79f94; stroke:none;" d="M246 707L248 716L254 713C252.246 708.991 250.399 707.347 246 707M273 707C272.216 714.664 275.833 716.319 282 720L282 707L273 707z"/>
<path style="fill:#9a8062; stroke:none;" d="M358 707C356.725 713.974 358.039 719.398 366 720L358 707M362 707L362 711L363 711L362 707M368.333 707.667L368.667 708.333L368.333 707.667z"/>
<path style="fill:#706851; stroke:none;" d="M55.3333 708.667L55.6667 709.333L55.3333 708.667z"/>
<path style="fill:#9a8062; stroke:none;" d="M74 708L72 714C74.6916 712.342 75.5503 710.858 74 708z"/>
<path style="fill:#706851; stroke:none;" d="M212 708L212 714L213 714L212 708z"/>
<path style="fill:#a79f94; stroke:none;" d="M237 708L236 712L237 712L237 708z"/>
<path style="fill:#9a8062; stroke:none;" d="M248 708L247 712L248 712L248 708M364 708L365 713L366 713L364 708z"/>
<path style="fill:#a79f94; stroke:none;" d="M515 708L515 712L516 712L515 708M520 708L524 718L520 708z"/>
<path style="fill:#9a8062; stroke:none;" d="M571.333 708.667L571.667 709.333L571.333 708.667M515 709L516 710L515 709z"/>
<path style="fill:#706851; stroke:none;" d="M572 709L571 711L573 711L572 709z"/>
<path style="fill:#9a8062; stroke:none;" d="M573 709L574 710L573 709z"/>
<path style="fill:#ccc9c8; stroke:none;" d="M178 710L177 711L177 720L183 720C182.886 715.305 182.194 712.449 178 710M69 711L69 717L70 717L69 711z"/>
<path style="fill:#9a8062; stroke:none;" d="M213 711L214 712L213 711M276 711L276 715L282 714C281.271 710.597 279.194 711.013 276 711z"/>
<path style="fill:#a79f94; stroke:none;" d="M362 711L365 715L362 711z"/>
<path style="fill:#9a8062; stroke:none;" d="M571.667 711.333L572.333 711.667L571.667 711.333M114 712L114 715L116 712L114 712M363 712L364 713L363 712z"/>
<path style="fill:#a79f94; stroke:none;" d="M366 712L367 713L366 712z"/>
<path style="fill:#9a8062; stroke:none;" d="M368 712L367 715L368 712z"/>
<path style="fill:#ccc9c8; stroke:none;" d="M87.3333 713.667L87.6667 714.333L87.3333 713.667z"/>
<path style="fill:#a79f94; stroke:none;" d="M187 713L186 720L192 720L192 714L191 713L187 713z"/>
<path style="fill:#706851; stroke:none;" d="M358.333 713.667L358.667 714.333L358.333 713.667z"/>
<path style="fill:#9a8062; stroke:none;" d="M364 713L365 714L364 713z"/>
<path style="fill:#a79f94; stroke:none;" d="M368 714L369 715L368 714z"/>
<path style="fill:#ccc9c8; stroke:none;" d="M157 715L159 719L157 715z"/>
<path style="fill:#9a8062; stroke:none;" d="M279 715L280 716L279 715z"/>
<path style="fill:#a79f94; stroke:none;" d="M289 717L289 718L304 720C302.735 712.42 294.596 717.063 289 717M365 715L365 716L368 716L365 715M467 715C467.652 718.911 469.136 719.7 473 720L467 715z"/>
<path style="fill:#9a8062; stroke:none;" d="M592 715L590 720L595 719L594 715L592 715M151 716L151 720L152 720L151 716z"/>
<path style="fill:#706851; stroke:none;" d="M205 716L207 720L205 716z"/>
<path style="fill:#ccc9c8; stroke:none;" d="M587 716L588 717L587 716z"/>
<path style="fill:#a79f94; stroke:none;" d="M194 717L195 718L194 717z"/>
<path style="fill:#706851; stroke:none;" d="M196 717L196 719L198 717L196 717z"/>
<path style="fill:#a79f94; stroke:none;" d="M204 717L204 720L205 720L204 717z"/>
<path style="fill:#706851; stroke:none;" d="M360.667 717.333L361.333 717.667L360.667 717.333z"/>
<path style="fill:#9a8062; stroke:none;" d="M132 718L132 720L134 720L134 718L132 718M167 718L169 720L167 718z"/>
<path style="fill:#a79f94; stroke:none;" d="M238 719L238 720L242 718L238 719z"/>
<path style="fill:#9a8062; stroke:none;" d="M296 719L296 720L300 720L296 719z"/>
<path style="fill:#a79f94; stroke:none;" d="M478 719L478 720L483 720L478 719z"/>
<path style="fill:#ccc9c8; stroke:none;" d="M587.333 718.667L587.667 719.333L587.333 718.667z"/>
<path style="fill:#a79f94; stroke:none;" d="M50 719L51 720L50 719z"/>
<path style="fill:#ccc9c8; stroke:none;" d="M68 719L69 720L68 719z"/>
<path style="fill:#9a8062; stroke:none;" d="M84.6667 719.333L85.3333 719.667L84.6667 719.333z"/>
<path style="fill:#ccc9c8; stroke:none;" d="M159 719L160 720L159 719z"/>
<path style="fill:#9a8062; stroke:none;" d="M165 719L166 720L165 719z"/>
<path style="fill:#706851; stroke:none;" d="M166.667 719.333L167.333 719.667L166.667 719.333M297 719L298 720L297 719z"/>
<path style="fill:#9a8062; stroke:none;" d="M481 719L482 720L481 719z"/>
<path style="fill:#706851; stroke:none;" d="M591 719L592 720L591 719M593.667 719.333L594.333 719.667L593.667 719.333z"/>
</svg>
